<svg xmlns="http://www.w3.org/2000/svg" width="1076.562" height="457.021" viewBox="0 0 284.84 120.92"><g><path fill-opacity="0.2" d="M0 0v4.548h33.28V0H6.82zm46.343 0v4.548h33.28V0H53.165zm46.344 0v4.548h26.665V0H99.508zm39.729 0v4.548h39.894V0h-33.073zm52.958 0v4.548H218.653V0h-26.458zm46.343 0v4.548h53.123V0h-46.302zM0 8.952v4.547h26.665V8.952H6.821zm39.729 0v4.547h79.582V8.952H46.55zm92.645 0v4.547h46.509V8.952h-39.687zm59.573 0v4.547h26.665V8.952h-19.844zm39.729 0v4.547h39.894V8.952h-33.073zM0 17.903v4.548h33.28v-4.548H6.82zm46.343 0v4.548h39.895v-4.548H53.165zm52.958 0v4.548h53.124v-4.548h-46.302zm66.188 0v4.548h53.123v-4.548H172.31zm66.187 0v4.548h26.665v-4.548h-19.844zM0 26.855v4.548h26.665v-4.548H6.821zm39.729 0v4.548h53.123v-4.548H46.55zm66.187 0v4.548h26.665v-4.548h-19.844zm39.729 0v4.548h79.582v-4.548h-72.761zm92.645 0v4.548h33.28v-4.548H245.112zM0 35.807v4.548H92.811v-4.548H6.82zm105.875 0v4.548h72.967v-4.548h-66.146zm86.03 0v4.548h72.968v-4.548h-66.146zM0 44.76v4.547h72.967v-4.547H6.821zm86.03 0v4.547H112.697v-4.547H92.852zm39.73 0v4.547H159.039v-4.547h-26.458zm46.343 0v4.547h33.28v-4.547H178.924zm46.344 0v4.547h13.435v-4.547h-6.614zm26.5 0v4.547h33.279v-4.547H251.768zM0 53.71v4.548h26.665V53.71H6.821zm39.729 0v4.548h53.123V53.71H46.55zm66.187 0v4.548h46.509V53.71h-39.688zm59.573 0v4.548h79.581V53.71h-72.76zM0 62.662v4.548h59.738v-4.548H6.821zm72.802 0v4.548H106.08v-4.548H79.623zm46.343 0v4.548h33.28v-4.548H125.966zm46.344 0v4.548h59.738v-4.548H172.31zM0 71.614v4.547h72.967v-4.547H6.821zm86.03 0v4.547H112.697v-4.547H92.852zm39.73 0v4.547H159.039v-4.547h-26.458zm46.343 0v4.547h33.28v-4.547H178.924zm46.344 0v4.547h53.123v-4.547h-46.302zM0 80.566v4.547h59.738v-4.547H6.821zm72.802 0v4.547H106.08v-4.547H79.623zm46.343 0v4.547h33.28v-4.547H125.966zm46.344 0v4.547h20.05v-4.547H172.31zM0 89.518v4.547H92.811v-4.547H6.82zm105.875 0v4.547h20.05v-4.547h-13.229zm33.114 0v4.547h39.894v-4.547H145.81zm52.958 0v4.547h39.894v-4.547h-33.073zm52.958 0v4.547h33.28v-4.547H251.726zM0 98.468v4.548h53.123V98.47H6.821zm66.187 0v4.548H92.852V98.47H73.008zm39.729 0v4.548h26.665V98.47h-19.844zm39.729 0v4.548h39.894V98.47h-33.073zm52.958 0v4.548h13.436V98.47h-6.615zm26.5 0v4.548H258.382V98.47H231.924zM0 107.422v4.547h33.28v-4.547H6.82zm46.343 0v4.547h59.738v-4.547H53.165zm72.802 0v4.547H145.81v-4.547h-19.844zm39.729 0v4.547h46.509v-4.547h-39.688zm59.573 0v4.547H251.726v-4.547H225.268zM0 116.373v4.547h53.123v-4.547H6.821zm66.187 0v4.547h66.353v-4.547H73.008zm79.417 0v4.547H218.57v-4.547h-66.146zm86.03 0v4.547H258.3v-4.547h-19.843z"/></g></svg>
