<?xml version="1.0" encoding="UTF-8" standalone="no"?>
<!-- Created with Inkscape (http://www.inkscape.org/) -->

<svg
   xmlns:dc="http://purl.org/dc/elements/1.1/"
   xmlns:cc="http://creativecommons.org/ns#"
   xmlns:rdf="http://www.w3.org/1999/02/22-rdf-syntax-ns#"
   xmlns:svg="http://www.w3.org/2000/svg"
   xmlns="http://www.w3.org/2000/svg"
   xmlns:sodipodi="http://sodipodi.sourceforge.net/DTD/sodipodi-0.dtd"
   xmlns:inkscape="http://www.inkscape.org/namespaces/inkscape"
   width="284.84048mm"
   height="120.92027mm"
   viewBox="0 0 284.84048 120.92027"
   version="1.1"
   id="svg8"
   inkscape:version="0.92.4 5da689c313, 2019-01-14"
   sodipodi:docname="fake-text.svg">
  <defs
     id="defs2" />
  <sodipodi:namedview
     id="base"
     pagecolor="#ffffff"
     bordercolor="#666666"
     borderopacity="1.0"
     inkscape:pageopacity="0.0"
     inkscape:pageshadow="2"
     inkscape:zoom="0.98994949"
     inkscape:cx="724.82762"
     inkscape:cy="173.14206"
     inkscape:document-units="px"
     inkscape:current-layer="flowRoot815"
     showgrid="false"
     fit-margin-top="0"
     fit-margin-left="0"
     fit-margin-right="0"
     fit-margin-bottom="0"
     inkscape:pagecheckerboard="true"
     inkscape:window-width="1920"
     inkscape:window-height="1027"
     inkscape:window-x="0"
     inkscape:window-y="1105"
     inkscape:window-maximized="1" />
  <metadata
     id="metadata5">
    <rdf:RDF>
      <cc:Work
         rdf:about="">
        <dc:format>image/svg+xml</dc:format>
        <dc:type
           rdf:resource="http://purl.org/dc/dcmitype/StillImage" />
        <dc:title></dc:title>
      </cc:Work>
    </rdf:RDF>
  </metadata>
  <g
     inkscape:label="Calque 1"
     inkscape:groupmode="layer"
     id="layer1"
     transform="translate(-4.0090576,-10.52959)">
    <g
       aria-label="Lorem ullam quas beatae autem aperiam, eius praesentium? Eveniet quos minima lorem beatae deleniti Corporis iure sunt repellat quos voluptatibus sequi Necessitatibus consequatur repellendus perferendis esse sint. Saepe at nemo? Elit expedita ratione perspiciatis excepturi quasi optio deserunt. Praesentium eius optio harum mollitia deserunt! Velit ipsum sit exercitationem sit dolore Cumque rerum expedita iure sunt facere Et harum optio deserunt. Elit laborum lorem delectus distinctio adipisicing eum, "
       transform="scale(0.26458333)"
       style="font-style:normal;font-variant:normal;font-weight:normal;font-stretch:normal;font-size:40px;line-height:25px;font-family:'Fira Sans';-inkscape-font-specification:'Fira Sans';letter-spacing:0px;word-spacing:0px;fill:#000000;fill-opacity:1;stroke:none;stroke-width:1px;stroke-linecap:butt;stroke-linejoin:miter;stroke-opacity:1"
       id="flowRoot815">
      <path
         style="font-style:normal;font-variant:normal;font-weight:normal;font-stretch:normal;font-family:'BLOKK Neue';-inkscape-font-specification:'BLOKK Neue';fill:#000000;fill-opacity:0.25289576"
         d="m 15.152344,39.796875 v 17.1875 h 25.78125 25 25 24.999996 25 v -17.1875 h -25 -24.999996 -25 -25 z m 175.156246,0 v 17.1875 h 25.78125 25 25 25 25 v -17.1875 h -25 -25 -25 -25 z m 175.15625,0 v 17.1875 h 25.78125 25 25 25 v -17.1875 h -25 -25 -25 z m 150.15625,0 v 17.1875 h 25.78125 25 25 25 25 25 v -17.1875 h -25 -25 -25 -25 -25 z m 200.15625,0 v 17.1875 h 25.78125 25 25 25 25 v -17.1875 h -25 -25 -25 -25 z m 175.15625,0 v 17.1875 h 25.78125 25 25 25 24.99996 25 25 25 v -17.1875 h -25 -25 -25 -24.99996 -25 -25 -25 z M 15.152344,73.630859 v 17.1875 h 25.78125 25 25 24.999996 v -17.1875 h -24.999996 -25 -25 z m 150.156246,0 v 17.1875 h 25.78125 25 25 25 25 25 25 25 25 25 25 25 v -17.1875 h -25 -25 -25 -25 -25 -25 -25 -25 -25 -25 -25 z m 350.15625,0 v 17.1875 h 25.78125 25 25 25 25 25 25 v -17.1875 h -25 -25 -25 -25 -25 -25 z m 225.15625,0 v 17.1875 h 25.78125 25 25 25 v -17.1875 h -25 -25 -25 z m 150.15625,0 v 17.1875 h 25.78125 25 25 25 25.00001 25 v -17.1875 h -25 -25.00001 -25 -25 -25 z M 15.152344,107.46289 v 17.1875 h 25.78125 25 25 24.999996 25 v -17.1875 h -25 -24.999996 -25 -25 z m 175.156246,0 v 17.1875 h 25.78125 25 25 25 25 25 v -17.1875 h -25 -25 -25 -25 -25 z m 200.15625,0 v 17.1875 h 25.78125 25 25 25 25 25 25 25 v -17.1875 h -25 -25 -25 -25 -25 -25 -25 z m 250.15625,0 v 17.1875 h 25.78125 25 25 25 25 25 25 25 v -17.1875 h -25 -25 -25 -25 -25 -25 -25 z m 250.15625,0 v 17.1875 h 25.78125 25 25 25 v -17.1875 h -25 -25 -25 z M 15.152344,141.29688 v 17.1875 h 25.78125 25 25 24.999996 v -17.1875 h -24.999996 -25 -25 z m 150.156246,0 v 17.1875 h 25.78125 25 25 25 25 25 25 25 v -17.1875 h -25 -25 -25 -25 -25 -25 -25 z m 250.15625,0 v 17.1875 h 25.78125 25 25 25 v -17.1875 h -25 -25 -25 z m 150.15625,0 v 17.1875 h 25.78125 25 25 25 25 25 25 25 25 25 25 25 v -17.1875 h -25 -25 -25 -25 -25 -25 -25 -25 -25 -25 -25 z m 350.15625,0 v 17.1875 h 25.78125 25 25 25.00001 25 v -17.1875 h -25 -25.00001 -25 -25 z M 15.152344,175.13086 v 17.1875 h 25.78125 25 25 24.999996 25 25 25 25 25 25 25 25 25 25 v -17.1875 h -25 -25 -25 -25 -25 -25 -25 -25 -25 -25 -24.999996 -25 -25 z m 400.156246,0 v 17.1875 h 25.78125 25 25 25 25 25 25 25 25 25 25 v -17.1875 h -25 -25 -25 -25 -25 -25 -25 -25 -25 -25 z m 325.15625,0 v 17.1875 h 25.78125 25 25 25 25 25 25 25 25 25 25.00001 v -17.1875 h -25.00001 -25 -25 -25 -25 -25 -25 -25 -25 -25 z M 15.152344,208.96289 v 17.1875 h 25.78125 25 25 24.999996 25 25 25 25 25 25 25 v -17.1875 h -25 -25 -25 -25 -25 -25 -25 -24.999996 -25 -25 z m 325.156246,0 v 17.1875 h 25.78125 25 25 25 v -17.1875 h -25 -25 -25 z m 150.15625,0 v 17.1875 h 25.78125 25 25 25 25 v -17.1875 h -25 -25 -25 -25 z m 175.15625,0 v 17.1875 h 25.78125 25 25 25 25 v -17.1875 h -25 -25 -25 -25 z m 175.15625,0 v 17.1875 h 25.78125 25 v -17.1875 h -25 z m 100.15625,0 v 17.1875 h 25.78125 25 24.99996 25 25 v -17.1875 h -25 -25 -24.99996 -25 z M 15.152344,242.79688 v 17.1875 h 25.78125 25 25 24.999996 v -17.1875 h -24.999996 -25 -25 z m 150.156246,0 v 17.1875 h 25.78125 25 25 25 25 25 25 25 v -17.1875 h -25 -25 -25 -25 -25 -25 -25 z m 250.15625,0 v 17.1875 h 25.78125 25 25 25 25 25 25 v -17.1875 h -25 -25 -25 -25 -25 -25 z m 225.15625,0 v 17.1875 h 25.78125 25 25 25 25 25 25 25 25 25 25 25 v -17.1875 h -25 -25 -25 -25 -25 -25 -25 -25 -25 -25 -25 z M 15.152344,276.63086 v 17.1875 h 25.78125 25 25 24.999996 25 25 25 25 25 v -17.1875 h -25 -25 -25 -25 -25 -24.999996 -25 -25 z m 275.156246,0 v 17.1875 h 25.78125 25 25 25 25 v -17.1875 h -25 -25 -25 -25 z m 175.15625,0 v 17.1875 h 25.78125 25 25 25 25 v -17.1875 h -25 -25 -25 -25 z m 175.15625,0 v 17.1875 h 25.78125 25 25 25 25 25 25 25 25 v -17.1875 h -25 -25 -25 -25 -25 -25 -25 -25 z M 15.152344,310.46289 v 17.1875 h 25.78125 25 25 24.999996 25 25 25 25 25 25 25 v -17.1875 h -25 -25 -25 -25 -25 -25 -25 -24.999996 -25 -25 z m 325.156246,0 v 17.1875 h 25.78125 25 25 25 v -17.1875 h -25 -25 -25 z m 150.15625,0 v 17.1875 h 25.78125 25 25 25 25 v -17.1875 h -25 -25 -25 -25 z m 175.15625,0 v 17.1875 h 25.78125 25 25 25 25 v -17.1875 h -25 -25 -25 -25 z m 175.15625,0 v 17.1875 h 25.78125 25 25 25 25 25 25.00001 25 v -17.1875 h -25 -25.00001 -25 -25 -25 -25 -25 z M 15.152344,344.29688 v 17.1875 h 25.78125 25 25 24.999996 25 25 25 25 25 v -17.1875 h -25 -25 -25 -25 -25 -24.999996 -25 -25 z m 275.156246,0 v 17.1875 h 25.78125 25 25 25 25 v -17.1875 h -25 -25 -25 -25 z m 175.15625,0 v 17.1875 h 25.78125 25 25 25 25 v -17.1875 h -25 -25 -25 -25 z m 175.15625,0 v 17.1875 h 25.78125 25 25 v -17.1875 h -25 -25 z M 15.152344,378.13086 v 17.1875 h 25.78125 25 25 24.999996 25 25 25 25 25 25 25 25 25 25 v -17.1875 h -25 -25 -25 -25 -25 -25 -25 -25 -25 -25 -24.999996 -25 -25 z m 400.156246,0 v 17.1875 h 25.78125 25 25 v -17.1875 h -25 -25 z m 125.15625,0 v 17.1875 h 25.78125 25 25 25 25 25 v -17.1875 h -25 -25 -25 -25 -25 z m 200.15625,0 v 17.1875 h 25.78125 25 25 25 25 25 v -17.1875 h -25 -25 -25 -25 -25 z m 200.15625,0 v 17.1875 h 25.78125 25 25.00001 25 25 v -17.1875 h -25 -25 -25.00001 -25 z M 15.152344,411.96289 v 17.1875 h 25.78125 25 25 24.999996 25 25 25 25 v -17.1875 h -25 -25 -25 -25 -24.999996 -25 -25 z m 250.156246,0 v 17.1875 h 25.78125 25 25 25 v -17.1875 h -25 -25 -25 z m 150.15625,0 v 17.1875 h 25.78125 25 25 25 v -17.1875 h -25 -25 -25 z m 150.15625,0 v 17.1875 h 25.78125 25 25 25 25 25 v -17.1875 h -25 -25 -25 -25 -25 z m 200.15625,0 v 17.1875 h 25.78125 25 v -17.1875 h -25 z m 100.15625,0 v 17.1875 h 25.78125 25 25 25 25 v -17.1875 h -25 -25 -25 -25 z M 15.152344,445.79688 v 17.1875 h 25.78125 25 25 24.999996 25 v -17.1875 h -25 -24.999996 -25 -25 z m 175.156246,0 v 17.1875 h 25.78125 25 25 25 25 25 25 25 25 v -17.1875 h -25 -25 -25 -25 -25 -25 -25 -25 z m 275.15625,0 v 17.1875 h 25.78125 25 25 25 v -17.1875 h -25 -25 -25 z m 150.15625,0 v 17.1875 h 25.78125 25 25 25 25 25 25 v -17.1875 h -25 -25 -25 -25 -25 -25 z m 225.15625,0 v 17.1875 h 25.78125 25 25 25 25 v -17.1875 h -25 -25 -25 -25 z M 15.152344,479.63086 v 17.1875 h 25.78125 25 25 24.999996 25 25 25 25 v -17.1875 h -25 -25 -25 -25 -24.999996 -25 -25 z m 250.156246,0 v 17.1875 h 25.78125 25 25 25 25 25 25 25 25 25 v -17.1875 h -25 -25 -25 -25 -25 -25 -25 -25 -25 z m 300.15625,0 v 17.1875 h 25.78125 25 25 25 25 25 25 25 25 25 25 v -17.1875 h -25 -25 -25 -25 -25 -25 -25 -25 -25 -25 z m 325.15625,0 v 17.1875 h 25.78125 25 24.21875 0.78125 25 v -17.1875 h -25 -0.78125 -24.21875 -25 z"
         id="path823"
         inkscape:connector-curvature="0" />
    </g>
  </g>
</svg>
