<svg xmlns="http://www.w3.org/2000/svg" viewBox="0 0 300 300" width="300" height="200" preserveAspectRatio="xMidYMid" id="svg31"><style>g{display:none}g:target{display:block}</style><g id="gmail" transform="matrix(1.30825 0 0 1.30825 -16.998199 23.215617)"><defs id="defs7"><linearGradient x1="1.321443" y1="127.76196" x2="211.76387" y2="127.76196" id="a" gradientTransform="scale(1.20333 .83103)" gradientUnits="userSpaceOnUse"><stop stop-opacity=".1" offset="0%" id="stop2"/><stop stop-opacity=".2" offset="100%" id="stop4"/></linearGradient></defs><path d="M238.834 193.595H16.154C7.52 193.595.25 186.551.25 177.689V16.815C.249 8.18 7.292.909 16.154.909h222.68c8.634 0 15.906 7.044 15.906 15.906v160.874c0 8.862-7.044 15.906-15.906 15.906z" id="path9" fill="#e3e3e3"/><path d="M32.06 193.595l95.207-76.575.682-4.09-98.161-70.666-.228 147.923z" id="path11" opacity=".1" fill="#231f20"/><path d="M16.154 193.595c-8.862 0-15.905-7.044-15.905-15.906V16.587c0-8.861 7.043-10.452 15.905-10.452 8.862 0 15.906 1.818 15.906 10.452v177.008z" id="path13" fill="#d54b3d"/><path d="M16.154 8.407c11.361 0 13.634 3.409 13.634 8.18v174.736H16.154c-7.498 0-13.633-6.135-13.633-13.634V16.587c0-4.999 2.272-8.18 13.633-8.18zm0-2.272C7.292 6.135.25 7.953.25 16.587V177.69c0 8.862 7.043 15.906 15.905 15.906H32.06V16.587c0-8.861-7.044-10.452-15.906-10.452z" id="path15" fill="#d72b27"/><path d="M238.834 193.595h-15.906V16.133c0-8.862 7.044-9.998 15.906-9.998 8.862 0 15.906 1.136 15.906 9.998v161.784c0 8.634-7.044 15.678-15.906 15.678z" id="path17" fill="#d54b3d"/><path d="M238.834 8.407c10.225 0 13.633 2.045 13.633 7.726v161.784c0 7.498-6.135 13.633-13.633 13.633H225.2V16.133c0-5.908 3.409-7.726 13.634-7.726zm0-2.272c-8.862 0-15.906 1.136-15.906 9.998v177.69h15.906c8.862 0 15.906-7.045 15.906-15.906V16.133c0-8.862-7.044-9.998-15.906-9.998z" id="path19" fill="#d72b27"/><path d="M170.667 193.595L1.58 23.195l8.894 3.617 117.702 84.755L254.74 18.76v159.157c0 8.634-7.044 15.678-15.906 15.678z" id="path21" fill="url(#a)"/><path d="M127.267 117.02L7.065 29.766C.021 24.54-2.024 14.542 3.202 7.498 8.43.454 18.654-1.136 25.925 4.09l101.57 73.848L229.744 3.18c7.044-5.226 17.042-3.635 22.268 3.636 5.226 7.044 3.636 17.042-3.636 22.268l-121.11 87.935z" id="path23" fill="#d54b3d"/><path d="M238.834 2.272c4.317 0 8.407 2.045 11.134 5.68 4.317 6.136 2.954 14.543-2.954 19.088l-119.747 87.254L8.429 27.949C2.294 23.404.703 14.769 5.02 8.862c2.5-3.409 6.817-5.68 11.361-5.68 2.954 0 5.908.908 8.18 2.726l101.343 73.62 1.363.91 1.363-.91L230.654 4.772c2.5-1.59 5.226-2.5 8.18-2.5zm0-2.272c-3.181 0-6.59.909-9.316 2.954L127.267 77.71 25.697 3.863C22.972 1.818 19.564.909 16.155.909c-4.999 0-9.998 2.272-13.179 6.59-4.999 7.043-2.954 17.041 4.09 22.267l120.202 87.482L248.15 29.085c7.044-5.226 8.635-14.997 3.636-22.268C248.605 2.272 243.833 0 238.834 0z" id="path25" fill="#d72b27"/></g><g id="twitter" transform="matrix(1.01985 0 0 1.01985 -2.976735 25.482642)"><path d="M94.719 243.187c112.46 0 173.956-93.168 173.956-173.956 0-2.647-.054-5.28-.173-7.903A124.323 124.323 0 0 0 299 29.668c-10.955 4.87-22.744 8.147-35.11 9.625 12.623-7.569 22.314-19.543 26.885-33.817a122.61 122.61 0 0 1-38.824 14.84C240.794 8.433 224.911 1 207.322 1c-33.763 0-61.144 27.38-61.144 61.132 0 4.798.537 9.465 1.586 13.94C96.948 73.517 51.89 49.188 21.738 12.194a60.978 60.978 0 0 0-8.278 30.73c0 21.212 10.793 39.938 27.207 50.893a60.69 60.69 0 0 1-27.69-7.647c-.01.257-.01.507-.01.781 0 29.61 21.076 54.332 49.052 59.934a61.22 61.22 0 0 1-16.122 2.152c-3.934 0-7.766-.387-11.49-1.103 7.783 24.293 30.353 41.97 57.113 42.466-20.925 16.402-47.287 26.17-75.937 26.17-4.929 0-9.798-.28-14.584-.846 27.059 17.344 59.19 27.464 93.722 27.464" id="path28" fill="#1da1f2"/></g></svg>
