<?xml version="1.0" encoding="UTF-8" standalone="no"?>
<svg xmlns="http://www.w3.org/2000/svg" width="274.33" height="274.33">
  <defs>
    <clipPath id="a">
      <path d="M0 199.3h766.9V0H0z"/>
    </clipPath>
  </defs>
  <g clip-path="url(#a)" transform="matrix(1.33333 0 0 -1.33333 -19.12 270.31)" fill="#0b98c6" fill-rule="evenodd">
    <path d="M172.64 91a31.36 31.36 0 1 1-12.46-8l13.8-4.77zM65.75 74.2a21.19 21.19 0 1 1-8.17 5.78l.52-9.86z"/>
    <path d="M185 85.4l-.63-21.42L164 70.52a44.34 44.34 0 0 0-14.05-2.27s-24.03-3.25-40.73 21.6c0 0-2.76-18.92-23.12-26.66a33.15 33.15 0 0 0-21.58-1.16l-15.06-5.59-1.18 16a33.29 33.29 0 0 0 12.86 52.47s21.6 9.73 41.57-10.63c0 0 7.74 43.99 47.24 42.76A44.4 44.4 0 0 0 185 85.4m-35.05 85.1c-26.2 0-46.28-15.8-53.8-35.2-13.53 5.89-23.29 8.2-39.81 1.52A46.32 46.32 0 0 1 37.08 65.5l1.6-24.67 23.75 8.11a46.11 46.11 0 0 1 28.63 2c11.36 4.58 17.45 9.92 22.22 17.37 7.75-9.58 19.39-13.5 36.67-13.5 5.45 0 10.71.76 15.7 2.16l29.3-9.69 1.74 31.29a57.84 57.84 0 0 1-46.73 91.92"/>
  </g>
</svg>
