<?xml version="1.0" encoding="UTF-8" standalone="no"?>
<svg xmlns="http://www.w3.org/2000/svg" width="1022.52" height="265.73">
  <defs>
    <clipPath id="a">
      <path d="M0 199.3h766.9V0H0z"/>
    </clipPath>
  </defs>
  <g clip-path="url(#a)" transform="matrix(1.33333 0 0 -1.33333 0 265.73)">
    <path d="M352.02 80.01h-2.12c-2.6 0-4.9.44-6.88 1.33-7.77 3.48-11.65 9.4-11.65 17.73l.53 5.3c3 9.53 9 14.3 18 14.3h2.12c7.1 0 12.57-2.3 16.4-6.89.13-1.04.32-1.95.54-2.8V89.8c-.22-.8-.4-1.66-.53-2.64-3.53-4.76-9-7.15-16.41-7.15m28.7 35.46a22.1 22.1 0 0 1-1.97 3.99c-6.48 8.11-15.3 12.17-26.47 12.17h-2.91c-3.84 0-7.99-.88-12.44-2.64-12.36-6.53-18.53-16.42-18.53-29.65 0-3.18.62-6.88 1.85-11.12 5.78-14.12 15.75-21.18 29.91-21.18h2.12c4.1 0 8.16.7 12.18 2.12 1.7.68 3.26 1.4 4.71 2.16.58-2.16 2.44-3.6 5.61-4.28h1.06c3.53 0 5.56 2.39 6.09 7.15v37.65c-.3 1.46-.7 2.65-1.2 3.63M401.02 170.28h1.06c3.88-.8 5.83-2.74 5.83-5.83V90.34c0-5.48 5.12-8.92 15.35-10.33 4.99 0 7.9-1.4 8.74-4.23l.26-1.6V72.6c0-2.82-1.94-4.68-5.82-5.56h-2.39c-10.01 0-18.48 3.8-25.4 11.38-2.48 3.1-3.71 7.6-3.71 13.5v69.89c0 4.37 1.32 7.01 3.97 7.94zM446.55 131.63h1.59c2.82 0 4.67-2.2 5.55-6.62V74.2c-.52-4.77-2.55-7.15-6.08-7.15h-1.06c-3.89.84-5.83 2.78-5.83 5.82v52.95c.84 3.88 2.78 5.82 5.83 5.82m0 38.65h1.06c3.4 0 5.42-2.2 6.08-6.62-.83-4.23-2.77-6.35-5.82-6.35h-1.32c-3.89.84-5.83 2.78-5.83 5.82v1.33c.84 3.88 2.78 5.82 5.83 5.82M476.58 100.4v-1.6c0-9.7 4.86-15.88 14.56-18.52l2.39-.27h1.85c7.5 0 12.97 4.32 16.41 12.97l.53 3.97v4.77c0 7.5-4.32 12.97-12.97 16.41l-3.44.53h-2.38c-7.2 0-12.58-4.15-16.15-12.44-.53-2.2-.8-4.15-.8-5.82m16.95 31.23h2.38c10.37 0 19.01-5.47 25.94-16.41 2.3-4.59 3.44-9.09 3.44-13.5v-4.77c0-10.54-5.3-19.28-15.88-26.2-4.85-2.47-9.53-3.7-14.03-3.7h-1.85c-11.3 0-20.3 5.9-27 17.73-1.95 4.23-2.92 9-2.92 14.3v.52c0 15.18 7.5 25.5 22.5 30.97 2.52.7 4.99 1.06 7.42 1.06M548.19 109.92V80.28h18.53c9.09 0 15.09 4.4 18 13.23.53 1.41.8 2.91.8 4.5v1.33l.26.26-.27.27v.79c0 9.04-4.76 15.04-14.3 18l-5.02.53c-8.3 0-14.2-2.56-17.74-7.68zm17.47 22.24c15.31-.48 25.55-7.28 30.7-20.38a27.1 27.1 0 0 0 2.13-10.06v-3.7c0-11.26-5.56-20.34-16.68-27.27a36.67 36.67 0 0 0-15.35-3.44h-18.27V39.58c-.84-4.06-2.78-6.1-5.82-6.1h-1.33c-3 0-4.94 2.04-5.82 6.1v69.55c0 11.7 8.2 19.2 24.62 22.5zM621.09 107.54l32.82 6.89v.26c-4.5 2.65-8.91 3.97-13.23 3.97h-2.65c-7.85 0-13.5-3.7-16.94-11.12m16.41 24.1h2.91c12.88 0 22.33-5.13 28.33-15.36.7-2.3 1.14-4.5 1.32-6.62 0-3.97-3.09-6.35-9.27-7.15l-40.5-8.47c0-2.95 2.3-6.57 6.89-10.85 3.7-2.12 7.32-3.18 10.85-3.18h2.12c5.3 0 10.41 1.68 15.35 5.03l2.65.53c4.06-.88 6.09-2.91 6.09-6.09v-1.32c0-4.1-5.92-7.63-17.74-10.59l-6.35-.53h-1.86c-13.85 0-23.73 6.8-29.64 20.38a36.5 36.5 0 0 0-2.12 11.92c0 13.32 6.18 23.2 18.53 29.64 4.45 1.77 8.6 2.65 12.44 2.65M707.98 131.63c11.91 0 21.09-4.59 27.53-13.76 1.23-3 1.85-5.3 1.85-6.89V72.86c-.83-3.88-2.78-5.82-5.82-5.82h-1.06c-3.4 0-5.43 2.3-6.09 6.88v36.27c0 2.03-2.03 4.06-6.09 6.09a23.35 23.35 0 0 1-10.58 2.38h-2.12c-7.41 0-12.89-2.38-16.41-7.15l-.53-2.12V72.86c-.89-3.88-2.83-5.82-5.83-5.82h-1.06c-3.53 0-5.56 2.38-6.08 7.15v34.15c0 12.66 9 20.42 27 23.3zM288.06 131.63h-2.91c-3.84 0-7.99-.88-12.45-2.64-12.35-6.44-18.52-16.33-18.52-29.65 0-3.84.7-7.81 2.11-11.91 5.91-13.6 15.8-20.39 29.65-20.39h1.85l6.36.53c11.82 2.96 17.73 6.49 17.73 10.6v1.32c0 3.17-2.03 5.2-6.09 6.08-1.64 0-2.64-.53-2.64-.53-4.94-3.35-10.06-5.03-15.36-5.03h-2.11c-3.53 0-7.15 1.06-10.86 3.18-4.59 4.28-6.88 7.9-6.88 10.85-1.06 8.83.8 13.5.8 13.5 3.44 7.42 9.08 11.12 16.94 11.12h2.64c4.33 0 8.74-1.32 13.24-3.97l.87-.58s1-.53 2.66-.53c4.07.88 6.1 2.9 6.1 6.09v1.32c0 4.1-6.16 7.4-18.03 10 0 0-1.22.4-5.1.64" fill="#0b98c6"/>
    <path d="M172.64 91a31.36 31.36 0 1 1-12.46-8l13.8-4.77zM65.75 74.2a21.19 21.19 0 1 1-8.17 5.78l.52-9.86z" fill="#0b98c6" fill-rule="evenodd"/>
    <path d="M185 85.4l-.63-21.42L164 70.52a44.34 44.34 0 0 0-14.05-2.27s-24.03-3.25-40.73 21.6c0 0-2.76-18.92-23.12-26.66a33.15 33.15 0 0 0-21.58-1.16l-15.06-5.59-1.18 16a33.29 33.29 0 0 0 12.86 52.47s21.6 9.73 41.57-10.63c0 0 7.74 43.99 47.24 42.76A44.4 44.4 0 0 0 185 85.4m-35.05 85.1c-26.2 0-46.28-15.8-53.8-35.2-13.53 5.89-23.29 8.2-39.81 1.52A46.32 46.32 0 0 1 37.08 65.5l1.6-24.67 23.75 8.11a46.11 46.11 0 0 1 28.63 2c11.36 4.58 17.45 9.92 22.22 17.37 7.75-9.58 19.39-13.5 36.67-13.5 5.45 0 10.71.76 15.7 2.16l29.3-9.69 1.74 31.29a57.84 57.84 0 0 1-46.73 91.92" fill="#0b98c6" fill-rule="evenodd"/>
  </g>
</svg>
