<?xml version="1.0" encoding="UTF-8" standalone="no"?>
<svg xmlns="http://www.w3.org/2000/svg" width="478.88" height="828" viewBox="0 0 126.7 219.07">
  <path d="M.06 109.54V0H126.7v219.08H.06z" fill="#fdfdfd"/>
  <path d="M4.15 213.58c-.42-1.1-.18-1.63 1.6-3.52 1.94-2.05 2.67-2.3 3.6-1.28.91 1.01.72 1.54-1.28 3.52-1.93 1.9-3.48 2.41-3.92 1.28zM3.12 204c-2.97-.12-3.1-.16-3-.9.08-.53.5-.92 1.35-1.2 1.78-.61 121.7-.61 123.44 0 1.27.44 2.13 1.43 1.66 1.9-.27.27-117.07.46-123.45.2zm55.92-12.16a1.5 1.5 0 0 1-.42-.88c0-.32-.58-.46-1.9-.46-1.25 0-2.05-.18-2.33-.52-.38-.46-.52-.46-1.18 0-.87.6-3.1.7-3.65.14-.28-.28-.45-.28-.63 0-.38.62-2.25.45-2.6-.24-.17-.34-.41-1.58-.53-2.76-.32-3.26 1-4.7 2.6-2.85.66.75.86.8 2.09.47 1.12-.3 1.52-.26 2.32.27.89.58 1 .58 1.29.06.38-.68 1.46-.75 1.98-.12.2.24.43 1.08.51 1.85l.14 1.4.06-1.65c.07-1.73.7-2.32 1.95-1.84.42.16.58.02.58-.5 0-.87 1.24-1.35 1.96-.75.28.23.51.8.51 1.24 0 .78.05.8.97.31 1.27-.66 2.21-.64 3.23.07.77.54.85.54 1.16 0 .38-.69 1.46-.76 1.98-.13.2.24.44 1.08.51 1.85.15 1.4.15 1.4.2-.27.04-.92.19-1.7.33-1.73.15-.03 2.01-.1 4.15-.14 3.82-.1 5.8.25 5.84 1.03.02.22.1 1.1.2 1.94.23 2.04-.5 2.87-2.52 2.87-1.83 0-2.79-.88-2.44-2.25.14-.58.08-.93-.16-.93-.22 0-.4.54-.4 1.2 0 .65-.2 1.34-.44 1.52-.24.19-1.8.37-3.47.4-2.34.06-3.14-.05-3.48-.46-.4-.46-.53-.47-1.19 0-1 .7-3.02.66-3.82-.06-.61-.56-.65-.54-.65.32 0 1.62-1.73 2.62-2.75 1.6zm-7.48-4.36c0-.3-.16-.45-.35-.33-.2.12-.35.37-.35.55 0 .18.15.33.35.33.2 0 .35-.25.35-.55zm13.05 0c0-.3-.15-.45-.35-.33-.2.12-.35.37-.35.55 0 .18.16.33.35.33.2 0 .35-.25.35-.55zm28.93 4.26c-.35-.43-.33-.69.08-1.33.82-1.26.35-1.86-.62-.8a3.11 3.11 0 0 1-3.97.34c-.7-.5-.85-.5-1.56 0-.93.65-3.83.73-4.44.13-.57-.57-.57-6 0-6.56.23-.24 1.2-.43 2.14-.43 1.44 0 1.9.17 2.78 1.06.79.78 1.21.98 1.65.74.86-.45 4.9-.28 5.4.23.35.34.56.32 1.05-.12 1.03-.93 1.9-.49 1.86.93-.06 1.45-1.38 5.05-2.13 5.8-.67.68-1.68.68-2.24 0zm-90.77-1.9c-.32-.36-.48-1.2-.42-2.31.1-2.18 1.13-3.22 2.8-2.85 1.05.22 1.78.24 4.17.1.63-.03 1.38 0 1.66.1.33.1.57-.13.64-.63.22-1.4 2.55-1.33 2.55.07 0 .27.32.38.81.28 1.05-.2 1.57.45 1.75 2.2l.14 1.4.06-1.64c.05-1.31.2-1.7.76-1.88.39-.12.87-.12 1.07 0 .2.13.65-.12 1-.55.77-.96 1.85-.71 2.54.58.38.7.39 1.04.05 1.57-.53.86-.54 1.58-.01 2.41.22.36.3.92.18 1.23-.28.75-2.21.77-2.63.03-.28-.5-.35-.5-.77 0-.54.66-3.89.77-4.51.14-.3-.29-.55-.3-.87-.04-.27.23-2.48.38-5.46.38-4.21 0-5.08-.09-5.5-.58zm22.36-.27a3.48 3.48 0 0 1-.2-3.9c.64-.92 2.34-1.35 3.3-.84.6.32.72.26.82-.38.27-1.82 2.4-1.76 2.4.06 0 1.06.03 1.07.79.54 1-.7 2.02-.7 3 0 .7.49.87.48 1.67-.04.63-.42 1.25-.52 2.14-.35 1.03.2 1.37.1 1.88-.54.77-.95 1.84-.7 2.53.59.38.7.4 1.04.06 1.57-.53.86-.54 1.58-.02 2.41.23.36.31.92.2 1.23-.27.68-2.02.78-2.65.16-.33-.33-.52-.33-.85 0-.53.53-3.18.55-3.7.03-.28-.27-.58-.27-1.1 0-2.15 1.15-4.3-.06-4.3-2.42 0-1.19-.1-1.37-.62-1.17-.87.32-1.14.85-.91 1.79.52 2.09-3 3.1-4.44 1.26zm2.47-1.99c-.04-.42-.53-.34-.68.12-.08.23.05.36.28.28.24-.08.41-.26.4-.4zM.4 136v-34.4H126.36v68.8H.41zm29.29-15.17v-6.18h-2.43c-1.9 0-2.48-.12-2.65-.56-.12-.3-.13-.7-.02-.88.22-.35-1.02-.5-3.08-.36-1.05.07-1.41-.09-1.88-.8-.32-.5-.49-1.05-.37-1.24.12-.2 1.28-.31 2.59-.26 1.3.04 2.79-.06 3.3-.22 1.07-.35 1.99-1.95 1.27-2.22-.24-.1-4.89-.13-10.32-.08l-9.87.1-.1 9.43-.09 9.44H29.7zm-12.45 5.24c-.14-.13-.25-4.01-.25-8.62 0-6.67.1-8.4.47-8.55 1.22-.46 1.3.2 1.21 8.77-.08 7.29-.17 8.45-.64 8.54-.3.06-.66 0-.8-.14zM7 124.28c-.41-.1-.6-.43-.53-.93.1-.73.3-.76 4.92-.86 4.31-.09 4.84-.03 5.05.52.45 1.17-.73 1.52-4.9 1.48a41.97 41.97 0 0 1-4.54-.2zm-.15-2.45c-.73-.3-.5-1.53.32-1.84l.77-.28-.77-.2c-.83-.22-1.07-1.5-.32-1.8.34-.14.33-.25-.04-.51-.26-.19-.42-.64-.35-1 .12-.6.56-.67 4.94-.76 4.3-.1 4.83-.04 5.04.52.15.39.01.78-.38 1.06-.59.43-.59.48 0 .9.7.52.45 1.67-.38 1.67-.37 0-.28.2.29.67.7.57.75.74.35 1.23-.4.47-1.22.57-4.75.54-2.36-.01-4.48-.1-4.72-.2zm-.2-7.06c-.44-.44-.25-1.45.31-1.67.31-.11 2.34-.21 4.52-.21 4.36 0 5.75.44 4.84 1.55-.4.47-1.27.57-4.96.57-2.47 0-4.59-.11-4.72-.24zm0-2.46c-.13-.13-.24-.54-.24-.9 0-.61.32-.65 5.02-.56 4.76.1 5.03.14 5.03.8 0 .67-.27.72-4.78.8-2.63.06-4.9 0-5.03-.14zm22.71-4.12c-.26-.27-.49-.27-.75 0-.26.25-.18.77.27 1.7l.63 1.35.12-1.34c.06-.73-.06-1.5-.27-1.71zm-7.3-10.27c-.15-.4-1.05-.5-4.38-.47-4.5.03-5.28-.22-5.28-1.67 0-1.18.81-1.65 2.96-1.71 1.06-.03 2.04-.17 2.19-.32.37-.37 1.83-.33 2.06.05.11.18 3.81.33 8.23.33 4.41 0 8.3.02 8.65.04.72.03 1.3 1.27 1.04 2.24-.1.36-.55.8-1.01.97-.46.18-.83.48-.83.68 0 .55-.75.44-1.47-.21-.59-.54-.65-.54-.86 0-.26.67-.89.75-1.47.17-.4-.4-2.06-.75-3.44-.72l-2.75.06c-1.43.03-2.1.2-2.24.55a.74.74 0 0 1-1.4.01zm-16.9-1c-.26-.67 1.13-4.32 1.64-4.32.25 0 .84.92 1.32 2.04.68 1.58.78 2.14.45 2.46-.32.33-.57.33-1.1 0-.43-.27-.76-.3-.9-.08-.3.5-1.21.43-1.41-.1zm4.93.05c-.3-.49.61-1.1 1.03-.68.34.34.01 1.08-.48 1.08-.17 0-.42-.18-.55-.4zm.2-1.72c-.42-.26-.44-.41-.09-.76.34-.34.53-.35.86-.02.58.58-.07 1.22-.77.78zm18.6-6.09a7.66 7.66 0 0 1-.02-2.11c.08-.15.7-.27 1.37-.27 1.04 0 1.21.12 1.21.84 0 1.42-1 3.4-1.72 3.4-.53 0-.7-.35-.84-1.86zm-23.73.92c-.45-.46-.53-.94-.34-2.2.13-.9.32-1.74.4-1.89.1-.15 1.18-.27 2.42-.27s2.33.12 2.42.27c.08.15.27 1 .4 1.88.33 2.2-.28 2.8-2.82 2.8-1.29 0-2.07-.2-2.48-.6zm6.42-.3c-.74-.73-.76-2.77-.03-3.5.68-.68 1.53-.7 2.45-.08.82.56 5.32.74 5.64.23.3-.5 1.5-.44 1.67.09.12.34.35.33 1.07-.05 1.42-.76 2.02-.31 2.02 1.52 0 .86-.18 1.68-.4 1.82-.31.2-6.81.27-9.22.1-.24 0-.93.09-1.53.22-.79.18-1.24.09-1.67-.34zm21.5.07c-.81-.6-.5-2.54.5-3.07.85-.46.9-.45 1.55.2.71.71.75 2.98.06 2.98-.28 0-.72.08-.98.18-.27.1-.78-.03-1.13-.29zm3.95-.24c-.63-.51-.72-.76-.4-1.09.24-.24.34-.86.24-1.39-.16-.77-.05-1 .6-1.16 1.32-.35 2.1.32 2.1 1.8-.02 2.16-1.15 2.98-2.54 1.84zm6.96.42a9.52 9.52 0 0 0-1.82-.18l-1.72-.07-.1-1.68c-.12-1.8.5-2.5 1.48-1.7.27.23 1.02.4 1.67.38.65-.02 2.37-.03 3.83-.03 1.45 0 3.36-.04 4.23-.1 2.2-.13 2.82.25 2.82 1.72 0 1.48-.64 1.86-2.82 1.67-.87-.07-2.22-.11-3-.08l-2.94.11c-.84.04-1.57.02-1.63-.04zm-18.65-.3c-.3-.3-.3-2.35-.02-3.1.12-.32.62-.55 1.2-.55 1.27 0 1.85 1.6 1.2 3.32-.22.55-1.92.79-2.38.32zm70.4-12a.78.78 0 0 1-.43-.68c0-.57.2-.55-5.86-.62-5.16-.06-5.79-.3-5.79-2.16 0-2.08.45-2.2 8.18-2.16 6.38.03 6.97-.02 7.34-.62.25-.4.67-.58 1.09-.47.37.1.77.03.88-.14.38-.62 1.2-.31 1.7.65.44.83.55.88.76.35.27-.71 1.77-.84 2.02-.17.12.3.91.42 2.53.38 2.5-.07 3.19.39 2.42 1.6a.99.99 0 0 0 0 1.14c.2.31.27.81.16 1.1-.18.45-1.16.52-6.4.47-3.41-.04-6.33.02-6.5.13-.16.1-.4.48-.52.82-.23.6-.72.73-1.57.38zm-43.4-1.6c-.24-.23-.43-1.31-.43-2.4 0-1.09.2-2.17.43-2.4.52-.52 2.2-.55 3.12-.06.48.26.88.23 1.4-.09.64-.38.81-.35 1.25.24.47.63 1.01.68 8 .7 6.76.03 7.55-.03 7.96-.6.6-.8 1.5-.79 1.71.02.14.55.54.61 3.13.54 2.7-.08 3.02-.02 3.5.68.66.93.72 2.94.1 3.33-.61.4-25.38.43-25.9.03-.26-.2-.69-.18-1.12.06-.94.5-2.63.47-3.15-.05zm69.66.19c-.13-.13-.24-.52-.24-.86 0-.82-1.07-1.03-1.86-.37-.56.48-.72.46-1.58-.19-.71-.53-.97-1.02-.97-1.87 0-.86.26-1.35.97-1.88.9-.68 1-.68 1.61-.13.36.33 1 .6 1.44.6 1.06 0 2.51 1.52 2.51 2.65 0 1.66-1.08 2.85-1.88 2.05zM.5 66.15c-.35-.4-.44-7.57-.44-33.33V0H126.7v23.98l-.79.2c-.44.1-21.99.23-47.89.27l-47.1.07v13.76l47.07.06c25.89.04 47.44.16 47.9.27l.81.2v13.43c0 11.17-.08 13.51-.5 13.93-.41.41-2.36.5-10.87.5-6.97 0-10.48-.12-10.74-.38-.25-.24-.32-1.44-.2-3.35.19-2.94.18-2.97-.66-3.01-.46-.03-2.66-.1-4.9-.15-2.23-.06-4.3-.12-4.58-.14-.3-.02-1.44.06-2.56.17-1.11.1-2.3.05-2.62-.13-.39-.22-.89-.2-1.41.03-.59.27-1.07.26-1.7-.03-1-.45-2.65.07-2.65.84 0 .63-1.07.94-1.63.47-.32-.26-.49-1.16-.49-2.6 0-2.6.47-3.2 2.2-2.85.64.12 1.4.22 1.69.21l6.17-.1c4.95-.08 5.7-.17 6.18-.73.52-.63 1.76-.52 1.76.15 0 .17.54.32 1.21.32.67 0 1.3.13 1.4.3.1.17.75.13 1.43-.09l1.25-.39v-7.23H65.32v14.78l1.64.1c3.07.2 3.1 2.48.03 2.69-.89.06-1.8.33-2.04.61-.63.76-63.78.75-64.45-.01zM35.5 56.8v-2.65l-2.38-.1-2.38-.1.02 1.68.03 1.7.66-1.5c.52-1.17.86-1.5 1.52-1.5 1.03 0 1.37.41 1.99 2.37.38 1.2.38 1.59.02 2.03-.54.65-3.2.73-3.82.11-.33-.33-.42-.28-.42.2 0 .53.3.6 2.38.5l2.38-.1V56.8zm22.05 1.26c0-1.44-.08-1.58-1.04-1.79-.77-.17-1.09-.48-1.26-1.26-.19-.86-.4-1.03-1.26-1.03h-1.03v5.64h4.59zm-46.06-.91c.25 0 .71.36 1.02.8.5.72.55.73.57.11.02-.73-.93-1.97-1.5-1.97-.65 0-1.66 1.15-1.66 1.9 0 .71.02.71.55-.06.3-.43.76-.78 1.02-.78zm59.8 5.2c-1.7-.85-3.16-3.1-3.16-4.85 0-1.74 1.47-4 3.16-4.85.87-.43 1.99-.8 2.49-.8.5 0 1.61.37 2.48.8 1.7.86 3.16 3.1 3.16 4.85 0 1.75-1.47 4-3.16 4.85-.87.44-1.98.8-2.48.8s-1.62-.36-2.49-.8zm36.78-25.03c-.6-.59-.6-11.26 0-11.85.6-.6 16.54-.6 17.14 0 .6.6.6 11.26 0 11.85-.6.6-16.54.6-17.14 0zm-74.72-3.94A9.58 9.58 0 0 1 33.3 31l.1-1.9 1.66-.1c1.49-.1 1.7-.01 2.15.84.32.6.59.8.75.55.3-.5 1.85-.53 2.15-.05.14.24.43.24.88 0 .36-.2 1-.35 1.44-.35.42 0 .99-.28 1.25-.62.46-.58.51-.58 1.03.09.5.65.9.7 4.99.61 3.74-.07 4.52-.19 4.92-.7.45-.58.51-.58 1.02.09.44.56.92.7 2.39.65 2.18-.07 2.71.28 2.71 1.82 0 1.53-.58 1.93-2.66 1.81-1.63-.1-1.76-.16-1.9-1.13l-.14-1.04-.2 1.04c-.2.95-.36 1.05-1.77 1.15-.85.06-1.76-.07-2.02-.3-.31-.25-.63-.27-.92-.05-.24.19-1.63.32-3.08.3l-2.65-.02-.2-1.06-.22-1.06-.14 1.06-.15 1.06h-4.23c-4.05 0-4.25-.03-4.58-.8-.45-1.02-.83-1-1.24.1-.37.96-.98 1.15-1.27.4zm9.73-1.45c0-.06-.23-.2-.52-.3-.32-.13-.53 0-.53.3s.2.42.53.3c.29-.11.52-.25.52-.3zm10.94 0c0-.06-.24-.2-.53-.3-.32-.13-.53 0-.53.3s.21.42.53.3c.3-.11.53-.25.53-.3z" fill="#e9fbfb"/>
  <path d="M4.52 213.55c-.58-.58-.1-1.52 1.72-3.3 1.62-1.6 2.04-1.86 2.55-1.54 1.1.69.88 1.5-.9 3.3-1.6 1.62-2.75 2.15-3.37 1.54zm1.81-55.76c-.86-.13-.94-.25-.76-1.27.36-2.07.48-2.26 1.01-1.53.33.45.71.58 1.23.41.41-.13.97-.05 1.24.18.28.22.67.3.87.18.2-.13.37.09.37.5 0 .9.91.96 1.14.07.16-.6 2.13-1.3 2.7-.96.13.09.23.68.23 1.33l-.02 1.17-2.11.05c-1.17.03-2.32-.11-2.58-.32-.32-.26-.57-.25-.86.04-.41.4-.68.42-2.46.15zm2.02-1.5c-.17-.29-.38-.3-.61-.07-.2.2-.24.54-.1.77.17.27.37.3.61.06.2-.2.24-.54.1-.77zm17.46-5.65c-.98-.77-1.77-.91-1.77-.33 0 .2-.35.32-.79.26-1.2-.17-1.27-1.77-.1-2.54.83-.55.97-.55 1.47-.04.43.42.67.46 1.05.15.77-.65 2.96-.1 2.96.75 0 .88.92.9 1.15.03.2-.75 1.98-1.22 2.63-.7.23.2.75.25 1.14.13.88-.28.9-.06.12 1.26-.68 1.16-.99 1.26-1.42.49-.27-.48-.43-.47-1.46.04-.71.35-1.55.5-2.2.36-.74-.14-1.1-.05-1.24.32-.26.68-.47.65-1.54-.18zm.99-1.44c-.07-.21-.28-.38-.46-.38-.19 0-.4.17-.46.38-.07.2.13.38.46.38.32 0 .53-.17.46-.38zm46.1 1.78c-.11-.18-.03-.97.18-1.75.3-1.11.55-1.41 1.16-1.41.43 0 1 .15 1.28.32.3.19.82.17 1.31-.06.6-.27.96-.25 1.36.08.42.35.65.35 1.05.02a1.4 1.4 0 0 1 1.18-.21c.4.12.86 0 1.12-.32.65-.78 1.14-.28.88.9-.27 1.26.28 1.35.83.15.43-.96.82-1.07 1.81-.54.52.28.69.19.86-.44.2-.72.26-.74.6-.17.25.44.6.56 1.22.4 1.06-.26 1.5.6.89 1.76-.41.76-.61.8-4.9.77-2.46-.02-4.67-.15-4.9-.3-.24-.15-.75-.07-1.15.18-.57.35-.86.36-1.42.01-.58-.36-.9-.32-1.92.25-.7.4-1.32.55-1.44.36zm1.86-1.96c-.34-.34-1.01.2-.76.61.15.24.34.24.6-.02.2-.2.28-.47.16-.6zm2.73-.15c-.17-.27-.37-.3-.6-.06-.2.2-.25.54-.1.77.17.27.37.3.6.06.2-.2.24-.54.1-.77zm3.7 0c0-.2-.15-.35-.35-.35-.2 0-.35.16-.35.35 0 .2.16.36.35.36.2 0 .35-.16.35-.36zm24.51 2.1c-.1-.17-.02-.96.19-1.74.43-1.59 1.36-1.89 2.55-.81.58.52.71.53.99.09.38-.63 3.51-.75 3.51-.14 0 .22-.4.84-.9 1.38-.82.88-1.08.96-2.6.78-1.1-.13-2-.03-2.6.28-.53.27-1.03.34-1.14.16zm1.87-1.95c-.34-.34-1.02.2-.76.61.14.24.34.24.6-.02.2-.2.27-.47.16-.6zm-97.8 1.28c-.12-.19-.44-.25-.73-.14-.35.14-.52-.04-.52-.54 0-.99-.64-.96-1.04.05l-.32.79-.03-.8c-.02-1.01-.58-1.01-1.12 0-.55 1.02-.8.32-.33-.91.3-.79.57-.94 1.7-.94.75 0 1.52.17 1.72.37.26.26.65.25 1.3-.05.7-.32 1.04-.32 1.42 0 .34.27.78.3 1.35.08.47-.18 1.78-.3 2.91-.26 2.04.06 2.07.08 2.19 1.18.15 1.36-.2 1.61-1.8 1.3-.9-.16-1.24-.4-1.24-.9 0-.88-.59-.84-1.08.08-.3.57-.65.7-1.44.6-.57-.1-1.13-.03-1.23.13-.24.4-1.46.37-1.71-.04zm1.4-1.43c-.17-.27-.38-.3-.61-.06-.2.2-.24.54-.1.77.17.27.38.3.61.06.2-.2.24-.54.1-.77zm23.22 1.2c-.22-.57.78-2.26 1.33-2.26.2 0 .66.16 1 .35.53.28.7.19.87-.44.2-.68.27-.7.56-.23.26.44.89.55 2.98.5 1.52-.04 2.87-.26 3.18-.52.45-.36.58-.34.77.15.12.33.05.77-.17 1-.22.21-.4.68-.4 1.03 0 .44-.27.63-.89.63-.64 0-.88-.18-.88-.7 0-.9-.57-.91-1.04-.03-.24.44-.6.6-1.07.48-.39-.1-.71-.04-.71.13 0 .18-1.2.34-2.67.36-2 .03-2.72-.09-2.86-.45zm12.4.21c-.12-.21-.14-.77-.02-1.23.3-1.18 3.38-2.63 3.38-1.59 0 .2-.14.35-.32.35-.17 0-.45.6-.63 1.33-.25 1.06-.49 1.34-1.23 1.43-.51.06-1.04-.07-1.17-.29zm1.53-1.08c-.07-.21-.28-.38-.46-.38-.19 0-.4.17-.46.38-.07.2.13.38.46.38.32 0 .53-.17.46-.38zm2.35 1.02c-.1-.28-.04-.9.15-1.37.34-.85.34-.85.37-.07.02.96.92 1.07 1.17.14.2-.78 2.42-1.31 3.34-.8.39.22.84.22 1.26-.01 1.4-.75 2.2.56 1.17 1.9-.51.68-1.46.83-1.8.29-.11-.19-.44-.25-.72-.14-.36.14-.52-.04-.52-.54 0-.95-.48-.96-1.1-.03-.62.91-3.03 1.37-3.32.63zm9.81-.19c-.31-.8.52-2.22 1.3-2.22.94 0 .92.57-.02.82-.41.1-.68.4-.6.64.28.85.98.7 1.98-.39.8-.87 1.2-1.06 1.9-.88.5.12 1.45-.02 2.19-.33 1.16-.48 1.32-.48 1.5 0 .15.38.49.47 1.22.31 1.25-.27 1.69.52 1 1.8-.45.85-1.53 1.15-1.9.54-.11-.18-.55-.23-.97-.12-.62.16-.72.08-.53-.42.46-1.19-.2-1.32-1.18-.25-.92 1.01-1.14 1.08-3.34 1.04-1.68-.03-2.41-.18-2.55-.54zm30.83.37c-.13-.13-.24-.64-.24-1.15 0-.69.2-.92.8-.97 4.3-.32 4.32-.32 4.26.42-.05.57.13.49 1-.48l1.06-1.19 1.2.64c1.16.63 1.2.63 1.67 0 .44-.6.5-.6.7-.07.17.42.48.52 1.12.36 1.09-.27 1.54.58.93 1.73-.4.74-.63.77-4.9.74-5.73-.05-5.72-.05-5.72-.68 0-.77-.62-.64-.88.18-.23.72-.58.89-1 .47zm8.14-1.38c-.34-.34-1 .2-.76.61.15.24.35.24.6-.02.2-.2.28-.47.16-.6zM20.36 149c.26-1.41.72-2.24 1.26-2.24.5 0 .35.93-.22 1.4-.3.25-.53.73-.53 1.09 0 .35-.17.74-.38.87-.25.16-.3-.2-.13-1.12zm55.2-5.24c0-.55-.02-.55-5.3-.66-1.95-.04-2.29-.14-2.25-.67.07-.81-.3-.78-.93.1-.55.76-1.58.93-1.95.32-.13-.2-.46-.3-.73-.19-.32.13-.5-.05-.5-.5 0-.94-.65-.88-1.04.1l-.32.8-.02-.8c-.03-1.02-.58-1.02-1.13 0-.54 1.01-.8.31-.32-.92.3-.79.57-.93 1.7-.93.74 0 1.52.17 1.74.38.25.25.61.27 1.04.06a7.16 7.16 0 0 1 2.42-.3c1.42.03 1.74.15 1.67.61-.06.32.12.66.4.77.34.13.44-.01.32-.46-.11-.43.08-.72.57-.88.92-.29 1.48.03 1.22.7-.32.83.85.63 1.3-.21.3-.55.6-.68 1.16-.5.42.12.92.21 1.12.2 4.75-.46 5.68-.15 4.75 1.59-.49.9-1.36 1.11-1.98.49-.26-.26-.55-.1-.96.53-.64.97-1.99 1.22-1.99.37zm1.69-1.97c-.07-.2-.28-.38-.46-.38-.19 0-.4.17-.47.38-.07.2.14.38.47.38.32 0 .53-.17.46-.38zm18.95 1.82c-.12-.2-.04-1.02.17-1.83.4-1.44.4-1.45 1.75-1.24 1.08.17 1.4.1 1.58-.4.23-.57.28-.57.75.07.27.38.5.97.5 1.32 0 .84.93.83 1.15-.01.16-.61 2.12-1.31 2.7-.96.12.08.23.67.22 1.32l-.01 1.17h-3.74c-2.55 0-3.91.15-4.29.46-.36.3-.63.33-.78.1zm1.84-2c-.34-.34-1.01.2-.76.61.15.25.35.24.6-.01.2-.21.28-.48.16-.6zm-92.5.3c.4-2.4.5-2.56 1.59-2.56.7 0 1.2.27 1.6.86.47.74.66.8 1.23.45.5-.32.76-.32 1.08 0 .25.25.64.3.98.13a7.62 7.62 0 0 1 2.46-.25c1.86.05 1.9.07 2.02 1.18.15 1.36-.19 1.61-1.8 1.3-.9-.16-1.24-.4-1.24-.89 0-.89-.29-.84-1.26.22-.88.94-2.85 1.21-3.57.5-.27-.28-.45-.28-.62 0-.13.2-.79.38-1.46.38-1.23 0-1.23 0-1.01-1.33zm2.3-.12c.45-.87.2-1.74-.5-1.74-.55 0-.93.74-.93 1.8 0 .9.93.86 1.42-.06zm11.17 1.2c-.52-.14-.59-.4-.4-1.47.29-1.63.85-2.3.85-1 0 1.08.27 1.2.88.36.7-.97 1.65-.33 1.52 1.02-.1 1-.24 1.16-1.17 1.2a6.74 6.74 0 0 1-1.68-.11zm5.27 0c-.13-.13-.24-.64-.24-1.14 0-.7.2-.93.8-.97 4.5-.33 4.67-.32 4.76.4.15 1.3-.75 2.02-2.17 1.75-.73-.13-1.27-.44-1.27-.72 0-.74-.63-.59-.88.21-.23.72-.58.89-1 .47zm7.28-.35c-.11-.29-.03-.89.17-1.34.33-.72.6-.81 2.26-.76a7.5 7.5 0 0 1 2.31.34c.25.15.6.17.8.05.2-.12.35.11.35.51 0 .9.92.96 1.15.07.15-.6 1.97-1.27 2.36-.88.1.08-.1.59-.41 1.11-.72 1.19-2.53 1.8-3.52 1.18-.43-.27-.85-.32-1.1-.12-.71.55-4.15.42-4.37-.16zm1.95-.94c.06-.34-.11-.59-.42-.59-.66 0-1.05.58-.74 1.08.32.51 1.02.22 1.16-.5zm2-.24c-.17-.27-.37-.3-.6-.06-.2.2-.25.54-.1.77.17.28.37.3.6.06.2-.2.24-.54.1-.77zm6 1.43c-.11-.2.04-.83.34-1.42.56-1.06 1.36-1.38 1.77-.71.15.23.46.23.93-.02.38-.21 1.07-.33 1.51-.27.45.06 1.08-.11 1.4-.37.48-.4.6-.4.8.1.16.45.47.54 1.23.37 1.24-.27 1.69.52 1 1.8-.44.83-1.37 1.12-1.89.6-.14-.14-.8-.2-1.47-.15-1.03.1-1.21 0-1.21-.62 0-.96-.27-.93-1.27.15-.83.9-2.71 1.22-3.14.54zm12.62-.26c-.1-.28-.02-.88.18-1.33.34-.73.6-.81 2.4-.76 2.21.07 2.63.46 1.92 1.79-.37.68-.72.8-2.37.8-1.35 0-2-.16-2.13-.5zm2.02-.81c0-.73-.85-.98-1.24-.36-.3.48.1 1.06.73 1.06.28 0 .5-.32.5-.7zm26.7 1.18c-.07-.07-.05-.61.04-1.2.18-1.24.88-1.68 1.65-1.05.28.23.7.3.95.14.62-.37 3.82-.42 3.82-.05 0 .81-1.14 1.95-1.78 1.78-.38-.1-.7-.03-.7.16 0 .31-3.68.52-3.98.22zm7-.11c-.3-.47.78-2.49 1.32-2.48.24 0 .67.16.96.34.37.23.75.11 1.32-.43.63-.59.9-.66 1.23-.32.34.33.34.57 0 1.12-.24.38-.43.9-.43 1.17 0 .31-.6.57-1.64.71-2.18.3-2.52.29-2.77-.11zm17.26-.04c-.75-1.2 1.06-2.98 2.13-2.1.28.24.66.32.87.2.2-.14.37.08.37.5 0 .97.91.92 1.21-.07.33-1.07.69-.17.4.98-.24.95-1.5 1.2-2.25.44-.33-.32-.52-.32-.85 0-.52.53-1.57.56-1.88.05zm1.43-1.39c-.18-.27-.38-.3-.61-.06-.2.2-.24.54-.1.77.17.28.37.3.6.06.2-.2.25-.54.1-.77zm-51.18-8.84a.6.6 0 0 1 .09-.71c.2-.2 12.98-.3 31.7-.24 27.62.08 31.38.16 31.38.62 0 .47-3.77.54-31.46.62-22.46.07-31.54-.02-31.7-.3zM4.8 127.97c-.1-.25-.13-5.13-.08-10.85l.1-10.4h26.1V128.23l-12.97.1c-10.25.07-13.01 0-13.15-.36zm25.07-7.14v-6.35l-2.39-.1-2.38-.11v-1.07c0-.91-.1-1.03-.72-.83-.4.12-.93.05-1.2-.17-.34-.29-.71-.28-1.4.04-.78.35-1.03.33-1.52-.16-.32-.32-.5-.68-.38-.79.11-.1 1.44-.25 2.95-.31 2.59-.1 2.8-.17 3.65-1.22.5-.61 1.04-1.1 1.19-1.1.14 0 .7.9 1.22 2.02l.96 2.03.12-2.07c.06-1.15.03-2.3-.08-2.57-.15-.4-2.25-.47-12.1-.39l-11.91.1-.1 9.34c-.05 5.14-.01 9.54.08 9.8.14.35 2.67.42 12.09.35l11.92-.1zm-12.35 4.37c-.35-.92-.02-15.48.35-15.57.48-.12.67 15.25.2 15.73-.23.23-.42.17-.55-.16zm-10.59-1.73c-.37-.6.6-.73 4.76-.63 2.82.07 4.05.23 4.15.54.19.56-8.56.65-8.9.09zm.27-2.56c.1-.32 1.3-.44 4.32-.44 3.03 0 4.22.12 4.32.44.12.34-.9.45-4.32.45-3.42 0-4.43-.1-4.32-.45zm-.09-2.19c0-.46.69-.54 4.44-.54 3.4 0 4.4.1 4.3.44-.11.31-1.4.47-4.45.54-3.66.09-4.29.02-4.29-.44zm0-2.5c0-.45.63-.52 4.3-.43 3.04.07 4.33.23 4.43.54.12.34-.9.44-4.29.44-3.75 0-4.44-.08-4.44-.54zm.25-1.8c-.68-.67.11-.83 4.2-.83 3.38 0 4.4.1 4.28.45-.16.48-8.03.84-8.48.39zM7 111.97c-.62-.62.54-.84 4.54-.84 3.67 0 4.4.1 4.4.53 0 .45-.73.53-4.36.53-2.4 0-4.45-.1-4.58-.22zm37.3 13.9c-.18-.31-.8-.62-1.37-.68-.76-.09-1.1-.36-1.29-1l-.25-.88-.25.79c-.35 1.12-1.22 1.01-1.22-.16 0-1.05-.55-.74-.76.42-.21 1.16-.78.8-1.08-.68-.21-1-.17-1.46.16-1.67.63-.4.85-.36 1.48.26.6.6 4 .94 4.62.47.2-.15.99-.14 1.74.03 1.12.26 1.46.2 1.84-.28.37-.49.51-.5.77-.12.24.37.28 1.86.07 2.8-.01.06-.33-.06-.7-.27-.46-.24-.76-.24-.9 0-.13.19-.56.35-.96.35-.4 0-.93.26-1.16.58-.4.53-.46.54-.75.03zm-11.73-2.21v-1.53h3.06v3.06h-3.06zm10.45-4.82c-.18-.52-1.6-.71-4.16-.55l-1.23.08v-1.77c0-1.57.08-1.77.81-1.88a2.7 2.7 0 0 1 1.59.4c.59.38.92.4 1.4.11.44-.27.7-.28.88-.02.3.43 5.52.43 7.58 0l1.32-.27v1.62c0 1.23-.13 1.63-.54 1.63-.3 0-.64-.26-.76-.58-.2-.52-.27-.51-.7.07-.35.48-.96.65-2.4.67-1.06.02-2.13.23-2.37.47-.54.54-1.24.55-1.42.02zm-10.42-.8c-.28-.45-.26-2.62.03-2.9.13-.14.79-.24 1.47-.24.68 0 1.34.1 1.47.23.3.3.3 2.64 0 2.94-.35.36-2.75.33-2.97-.03zm84.52-.34c-.59-.31-1.06-.37-1.27-.16-.18.19-1.2.29-2.24.23-1.68-.1-1.91-.2-2.02-.93-.08-.61.31-1.21 1.5-2.31 1.29-1.18 1.53-1.58 1.19-1.92-.35-.34-.56-.27-1.02.33-.63.85-1.73.71-1.73-.2 0-.86 1.33-1.96 2.36-1.96.52 0 1.3.33 1.73.74l.79.73.23-.73c.2-.62.52-.74 1.97-.74 1.49 0 1.74.1 1.74.69 0 .5-.28.7-1.14.79-1.21.12-1.45.73-.37.94a2.32 2.32 0 0 1 1.86 2.31c0 1.29-.25 1.73-1.3 2.27-.97.52-1.14.51-2.28-.08zm-.72-1.69c.31-.32.62-.3 1.3.06s1 .38 1.3.08c.65-.64-.22-1.4-1.42-1.22-.56.09-1.13-.02-1.26-.23-.25-.4-2.32.89-2.32 1.44 0 .44 1.93.34 2.4-.13zm-55.1.15c-.07-.06-.98-.15-2.02-.19l-1.9-.07v-1.41c0-1.2.1-1.4.7-1.33.73.1 2.56.13 4.77.1 5.24-.09 6.55.4 5.77 2.16-.35.77-.56.82-3.79.84-1.88.01-3.47-.03-3.54-.1zm8.78-.32c-.67-.67-.67-1.34 0-2.01.75-.75 2.06-1.11 2.22-.63.08.23.48.32.92.2 1.13-.28 1.84.67 1.41 1.9-.3.84-.52.94-2.18 1-1.24.05-2.02-.1-2.37-.46zm6 0c-1.48-1.47-.14-2.4 3.5-2.43 1.6-.01 3.21-.22 3.67-.47.7-.38.93-.36 1.46.12.53.48.78.5 1.58.14.62-.29 1.04-.31 1.2-.09.26.4 4.49.41 4.87.03.35-.35 1.81-.3 2.04.07.21.35 1.98.29 2.58-.08.2-.13 1.44-.2 2.74-.17 2.1.06 2.4.16 2.74.89.26.57.26 1.06-.01 1.65-.38.83-.4.83-5.62.7-2.87-.09-5.7-.12-6.29-.09-1.36.08-4.28.09-7.4.01-1.36-.03-3.39.02-4.5.1-1.5.11-2.18.01-2.56-.37zm-43.57-4.35c-.45-.29-.38-.63.53-2.37.58-1.13 1.3-2.04 1.59-2.04.29 0 1 .91 1.59 2.04 1.23 2.37 1.03 2.71-1.6 2.71a5.4 5.4 0 0 1-2.1-.34zm11.3 0c0-.2-1.07-.35-2.47-.35-2.32 0-2.48-.06-2.68-.86-.36-1.45.12-2.32 1.3-2.32.97 0 1.04.09.95 1.15-.13 1.34.54 1.76.7.45.12-.87.2-.9 2.48-.81 1.3.04 2.56-.05 2.81-.21.26-.17.68-.1.98.15.42.34.8.32 1.84-.11 1.56-.64 3.2-.76 3.78-.27.23.19 1.05.4 1.83.47.78.07 1.6.24 1.82.38.28.17.33-.08.18-.87-.16-.76-.07-1.2.27-1.42.27-.17 3.67-.31 7.56-.32 5.76 0 7.2.1 7.77.53.67.52.67.53 0 1.06-.55.42-1.89.53-6.64.53h-5.94l-.51 1.2-.5 1.21-6.9-.04c-4.91-.03-7 .08-7.3.38-.51.51-1.34.55-1.34.07zM22.3 97.22c-.29-.34-1.2-.44-3.33-.37-3.57.12-4.07-.1-3.21-1.4.37-.56.82-.86 1.12-.75.28.1.8.04 1.16-.16.36-.2.74-.21.85-.05.1.17 2.37.27 5.05.23 2.67-.04 5.15.08 5.5.25.36.19.82.2 1.06.02.23-.17 1.67-.3 3.2-.29 2.3.02 2.85.13 3.17.66.33.53.22.78-.63 1.47-.8.65-1.16.74-1.63.45a1.46 1.46 0 0 0-1.27-.09c-.36.16-.82.24-1.01.18-.2-.06-.91-.2-1.6-.32-.8-.14-1.35-.49-1.58-1-.43-.99-.89-1.02-1.13-.1-.18.7-.91.88-2.86.72a3.1 3.1 0 0 0-1.64.48c-.7.45-.9.46-1.22.07zm-.73-1.44c0-.3-.15-.53-.34-.53-.44 0-.76.55-.48.83.4.4.82.24.82-.3zm2.46 0c0-.3-.14-.53-.33-.53-.44 0-.76.55-.48.83.4.4.81.24.81-.3zm9.88 0c0-.3-.15-.53-.33-.53-.44 0-.76.55-.48.83.4.4.81.24.81-.3zm2.47 0c0-.3-.15-.53-.33-.53-.44 0-.76.55-.48.83.4.4.81.24.81-.3zm-23.26.58c-.4-.75.4-2.22.92-1.68.16.17.1.38-.15.47-.62.22-.55 1.16.1 1.16.28 0 .52.16.52.35 0 .6-1.02.39-1.39-.3zm-7.43-.09c0-.71.84-2.43 1.2-2.43.34 0 1.27 1.84 1.27 2.52 0 .1-.56.17-1.23.15-.68-.01-1.24-.12-1.24-.24zm-.16-6.52c-.41-.42-.5-.9-.33-1.85.33-1.82.33-1.82 2.43-1.82s2.1 0 2.43 1.82c.31 1.71-.4 2.41-2.43 2.41-.94 0-1.76-.22-2.1-.56zm24.16.2c-.01-.28-.12-.88-.23-1.31-.17-.64-.07-.8.53-.8.89 0 1 .95.23 1.96-.4.53-.52.56-.53.16zm-17.83-.58c-.67-.66-.68-2.03-.02-2.7.57-.56 2.28-.4 2.53.26.17.45 4.05.5 5.36.06.46-.15 1-.1 1.25.1.32.26.74.22 1.46-.16 1.25-.64 1.68-.27 1.53 1.3-.11 1.18-.14 1.2-1.88 1.23a5.41 5.41 0 0 1-2.17-.28c-.23-.18-.5-.18-.6 0-.27.43-4.03.47-4.3.04-.13-.21-.38-.23-.63-.04-.8.63-2 .72-2.53.2zm1.6-1.35c0-.3-.17-.53-.36-.53-.2 0-.35.24-.35.53 0 .29.15.53.35.53.2 0 .35-.24.35-.53zm19.89 1.08c-.25-.65.5-2.05 1-1.88.64.22 1.1 1.19.86 1.8-.27.72-1.6.77-1.86.08zm4.27.15c-.12-.2.03-.35.33-.35.7 0 .69-.17-.03-1.26-.62-.94-.47-1.42.34-1.1.27.1.58.63.69 1.18.26 1.37-.73 2.5-1.33 1.53zm5.87.06c-.47-.06-.92-.42-1.02-.8-.22-.83-.65-.86-1.12-.05-.3.5-.36.4-.37-.57-.01-1 .08-1.14.6-.9.35.16 1.18.31 1.86.35l1.99.11c.45.02.83.34.95.81l.2.78.83-.9c.75-.8 1.06-.88 3.42-.83 2.35.05 2.63.13 2.9.86.16.44.21.92.12 1.08-.26.42-3.69.1-4.3-.4-.42-.35-.58-.34-.83.06-.29.47-3.17.7-5.23.4zm-17.57-.6c-.25-.67.3-1.8.8-1.66.48.13.37 1.95-.13 2.11-.24.09-.54-.12-.67-.45zm69.85-11.72c-.22-.84-1.7-1.53-2.21-1.03-.27.27-.5.26-.8-.03-.3-.3-.54-.31-.88-.03-.34.28-.6.27-.97-.03-.38-.32-.66-.31-1.2.03-.56.34-.91.35-1.63.02-.7-.32-1.07-.32-1.59 0-.51.32-.88.32-1.57 0-.73-.33-.91-.66-.91-1.66 0-1 .18-1.33.9-1.66.7-.32 1.07-.32 1.58 0 .52.32.88.32 1.59 0 .72-.33 1.07-.32 1.63.02.49.31.84.34 1.14.08.54-.44 6.84-.41 7.7.03.5.25.63.17.63-.38 0-1.06.73-1.28 1.38-.42.6.8 1.18.69.85-.17-.3-.78.58-.58 1.33.3.62.73.7.74 1.04.17.45-.75 1.34-.8 1.62-.09.13.35.47.46 1.01.32 1.78-.44 2.97 1.41 1.95 3.03-.38.6-3.48.83-4.13.3-.27-.22-.65-.22-1.07 0-.7.38-3.45.35-3.84-.03-.33-.33-2.13.66-2.38 1.3-.28.74-.97.7-1.17-.07zm-43.3-1.35a7.27 7.27 0 0 1-.21-1.9c0-.75.1-1.61.21-1.92.28-.72 2.2-.74 3.22-.02.68.48.8.47 1.09-.05.36-.65 1.12-.38 1.12.4 0 .37.28.45 1.06.3.61-.13 1.27-.04 1.56.2.35.3.71.32 1.16.08.88-.47 3.61-.3 3.95.24.2.34.37.32.72-.1.33-.4.62-.44 1.1-.19.42.23.71.23.86 0 .3-.5 1.7-.45 2.22.06.33.33.52.33.85 0 .52-.52 1.78-.55 2.28-.04.27.27.45.12.6-.53.28-1.09.92-1.19 1.18-.19.16.6.38.69 1.22.5.62-.13 1.24-.05 1.56.22.4.33.62.34.93.03.59-.59 2.24-.5 2.9.14.3.3.55 1 .55 1.55 0 1.2-.74 1.96-1.34 1.36-.3-.3-.54-.28-.94.05-.43.36-.66.36-1.06.03-.3-.24-.7-.3-.97-.14-.64.4-13.06.46-13.57.06-.26-.2-.68-.16-1.12.12-.56.35-.9.35-1.65 0-.64-.28-1.1-.31-1.37-.08-.57.48-3.84.26-4-.26-.1-.3-.36-.27-.9.11-1.01.7-2.93.7-3.2-.03zm2.26-1.9c0-.4-.16-.71-.36-.71-.19 0-.35.31-.35.7 0 .39.16.7.35.7.2 0 .36-.31.36-.7zm54.57 2.23c-.49-.48-.24-1.23.37-1.11.34.06.62.34.62.61 0 .56-.62.87-1 .5zm12.8-.64c0-.77-1.39-1.24-2.37-.79-.62.28-.95.22-1.5-.28-.4-.35-.7-.9-.7-1.23 0-.33.3-.89.7-1.24.59-.53.85-.57 1.6-.23.5.22 1.18.4 1.53.4 1.02 0 2.23 1.56 2.1 2.7-.13 1.09-1.35 1.7-1.35.67zm-12.98-2.18c.06-.36.36-.65.64-.65.76 0 .65 1.02-.12 1.17-.47.09-.62-.05-.52-.52zM.5 66.09c-.35-.14-.44-5.6-.44-25.64V15l6.79-.05c8.02-.06 48.53-.08 65.88-.04 6.7.02 20.62-.06 30.95-.18 11.52-.13 18.86-.08 18.98.12.12.19 1.05.23 2.12.1l1.92-.22v9.09l-5.38.02h-20.2c-14.24-.02-41.23.09-46.74.18-1.45.03-7.33-.07-13.06-.2-9.04-.23-10.47-.19-10.85.27-.33.4-.42 2.38-.35 7.72l.1 7.18 21.7-.07c11.93-.04 23.12-.1 24.87-.15 1.74-.04 13.69 0 26.54.08l23.37.14v9l-31.04-.23-31.05-.24v7.6c0 5.69.12 7.7.45 7.97.24.2 1.08.42 1.85.48 2.01.17 1.94 1.14-.09 1.28-1.05.08-1.6.32-1.86.8-.36.67-1.03.68-32.2.65-17.5-.01-32.02-.1-32.26-.2zm35.34-6.55c.63-.89.74-3.96.2-5.37-.32-.85-.47-.9-2.95-.9-2.06 0-2.67.12-2.83.56-.4 1.01-.23 5.63.2 6.07.24.24 1.39.43 2.63.43 1.88 0 2.29-.12 2.75-.79zm-4.25-1.12c-.32-.85.78-3.56 1.45-3.56.67 0 1.77 2.71 1.45 3.56-.26.66-2.64.66-2.9 0zm26.12 1.7c.76-.3.78-3.75.03-4.38-.3-.24-.53-.66-.53-.93a.49.49 0 0 0-.49-.48c-.27 0-.69-.25-.94-.55-.3-.37-.92-.51-1.9-.44l-1.44.1-.1 2.95c-.06 1.87.05 3.13.3 3.44.43.5 3.96.7 5.07.28zm-1.56-4.9c-.27-.34-.3-.54-.07-.54.43 0 .93.67.68.91-.09.1-.36-.08-.6-.37zM10.9 58.56c.1-.39.39-.7.63-.7.25 0 .53.31.63.7.2.74 1.11.96 1.49.35.27-.44.3-3.73.04-4.16-.34-.55-3.01.14-3.93 1-.83.78-.88 1.27-.33 3.08.22.7 1.27.5 1.47-.27zM7.98 32.12c.34-.37.56-.85.49-1.06-.18-.53-1.71.59-1.71 1.24 0 .7.48.64 1.22-.18zm6.9-1.08c-.48-.47-.6-.47-1.07 0-.47.47-.47.6 0 1.06.47.47.6.47 1.06 0 .47-.47.47-.59 0-1.06zm89.7 34.7c-.52-1.38.6-1.53 11.1-1.53 8.21 0 10.1.09 10.52.5.66.66.64 1.13-.05 1.4-.31.12-5.24.21-10.95.21-9.32 0-10.41-.06-10.61-.58zm-32.34-3.31c-3.73-1.12-4.79-6.14-1.84-8.73a5.01 5.01 0 0 1 6.98.16c2.79 2.67 1.55 7.51-2.2 8.59-1.39.4-1.55.4-2.94-.02zm38.46-3.86c-1.46-1.62-1.4-2.07.5-3.67.87-.74 1.23-.85 1.77-.56.37.2.68.59.68.86s.32.6.7.72c.96.3.97 1.93.03 2.18-.38.1-.74.52-.8.94-.19 1.32-1.45 1.12-2.88-.47zm8.12 1.17c-.12-.13-.23-.51-.23-.84 0-.34-.32-.7-.7-.8-.95-.24-.98-1.88-.04-2.17.36-.12.74-.53.84-.9.27-1 1.61-.88 2.79.25 1.3 1.24 1.25 2.19-.17 3.56-1.12 1.09-1.98 1.4-2.49.9zm-10.66-22.8c-.1-.25-.13-2.91-.08-5.91l.1-5.45h16.94v11.64l-8.4.1c-6.65.07-8.41 0-8.56-.37zM38 32.14c-.1-.18-.04-.43.16-.55.2-.12.36.02.36.33 0 .62-.21.7-.52.22zm9.18 0c-.11-.18-.04-.43.15-.55.2-.12.36.02.36.33 0 .62-.21.7-.51.22zm10.93 0c-.1-.18-.04-.43.16-.55.2-.12.36.02.36.33 0 .62-.21.7-.52.22zm-24.18-.93c0-.3.16-.45.36-.33.19.12.35.37.35.55 0 .18-.16.33-.35.33-.2 0-.36-.25-.36-.55zm1.94.2c-.12-.2-.05-.36.16-.36.2 0 .37.16.37.36 0 .2-.07.35-.15.35-.09 0-.26-.16-.38-.35zM2.03 12.62c-.64-2.24-.92-3.47-.92-4.12 0-2.05 2.16-3.91 4.54-3.91.59 0 1.2-.22 1.36-.48 1.17-1.96 4.96-2.18 6.83-.38a4.65 4.65 0 0 1 1.25 5.3 10.7 10.7 0 0 0-.57 2.5c0 .74-.36 1-1.19.85-3.12-.57-5.56-.66-6.45-.24-1.52.73-4.69 1.04-4.85.48zm5.79-4.3c0-.29-.16-.62-.36-.74-.19-.12-.35.11-.35.51s.16.73.35.73c.2 0 .36-.23.36-.5zm83.04 1.76c-1.8-.79-2.16-3.15-.69-4.63 1-.99 1.92-1.09 3.35-.35 1.66.86 1.95 2.76.64 4.2-1.04 1.14-1.96 1.36-3.3.78zm20.23.12c-.65-.38-.88-2.59-.3-2.94.16-.1.4-.67.51-1.25.15-.75.47-1.12 1.13-1.28 1.1-.28 1.52.09 2.19 1.87.84 2.25.88 2.79.27 3.4-.65.65-2.83.77-3.8.2zM96.86 8.08c-.65-.72-.65-.74.02-1.23.37-.28.93-.5 1.25-.5.31 0 .87.22 1.25.5.67.49.67.5.01 1.23-.37.4-.93.74-1.26.74-.33 0-.9-.33-1.27-.74zm21.52 0c-.65-.72-.65-.74.02-1.23.37-.28.93-.5 1.25-.5.31 0 .87.22 1.25.5.67.49.67.5.01 1.23-.37.4-.93.74-1.26.74-.33 0-.9-.33-1.27-.74z" fill="#a9daf0"/>
  <path d="M4.66 213.28c-.55-.66-.16-1.36 1.86-3.32 1.37-1.34 1.66-1.49 2.32-1.14 1.1.6.93 1.13-1 3.14-1.82 1.9-2.47 2.17-3.18 1.32zm53.25-80.99c0-.23 10.58-.35 31.05-.35 20.46 0 31.04.12 31.04.35 0 .23-10.58.35-31.04.35-20.47 0-31.05-.12-31.05-.35zM5 127.34c0-.6.12-.66.69-.35.43.23 4.93.36 12.2.36 7.25 0 11.75-.13 12.19-.36.57-.3.68-.25.68.35 0 .7-.16.72-12.88.72-12.71 0-12.88-.01-12.88-.72zm39.3-1.49c-.17-.3-.78-.6-1.36-.67-.76-.09-1.1-.36-1.29-1l-.25-.88-.25.79c-.35 1.12-1.22 1.01-1.22-.16 0-1.05-.55-.74-.76.42-.21 1.16-.78.8-1.08-.68-.21-1-.17-1.46.16-1.67.63-.4.85-.36 1.48.26.6.6 4 .94 4.62.47.2-.15.99-.14 1.74.03 1.12.26 1.46.2 1.84-.28.37-.49.51-.5.77-.12.24.37.28 1.86.07 2.8-.01.06-.33-.06-.7-.27-.46-.24-.76-.24-.9 0-.13.19-.56.35-.96.35-.4 0-.93.26-1.16.58-.4.53-.46.54-.75.03zm-26.44-8.37c0-4.37.05-6.16.1-3.97.07 2.18.07 5.75 0 7.93-.05 2.19-.1.4-.1-3.96zm14.72 6.17v-1.53h3.06v3.06h-3.06zm-25.37-.27c.1-.3 1.24-.47 3.64-.54 3.74-.11 5.25.09 4.9.64-.33.55-8.72.45-8.54-.1zM7.1 121c0-.21 1.65-.35 4.23-.35 2.6 0 4.24.14 4.24.35 0 .22-1.65.36-4.24.36-2.58 0-4.23-.14-4.23-.36zm.26-1.98c-.63-.62.47-.84 4.2-.84 3.1 0 4.03.1 3.92.44-.16.48-7.68.85-8.12.4zm35.65-.2c-.18-.51-1.6-.7-4.16-.54l-1.23.08v-1.77c0-1.57.08-1.77.81-1.88a2.7 2.7 0 0 1 1.59.4c.59.38.92.4 1.4.11.44-.27.7-.28.88-.02.3.43 5.52.43 7.58 0l1.32-.27v1.62c0 1.23-.13 1.63-.54 1.63-.3 0-.64-.26-.76-.58-.2-.52-.27-.51-.7.07-.35.48-.96.65-2.4.67-1.06.02-2.13.23-2.37.47-.54.54-1.24.55-1.42.02zm-10.42-.79c-.28-.45-.26-2.62.03-2.9.13-.14.79-.24 1.47-.24.68 0 1.34.1 1.47.23.3.3.3 2.64 0 2.94-.35.36-2.75.33-2.97-.03zm79.38-.63c-.54-.68.03-1.83 1.47-2.93.7-.53 1.26-1.18 1.26-1.46 0-.77-1.1-1.02-1.59-.35-.62.84-1.3.72-1.17-.2.06-.46.54-1 1.1-1.27.85-.4 1.11-.4 1.85.09.47.3.96.99 1.1 1.5.2.82.01 1.14-1.3 2.27l-1.52 1.31 1.2.12c.79.07 1.21.3 1.21.64 0 .7-3.07.95-3.6.28zm5.11.05c-.72-.42-.83-1.39-.16-1.39.25 0 .64.18.86.4.62.63 1.57.08 1.44-.84-.1-.65-.33-.8-1.35-.8h-1.23l.02-1.7c.03-1.91.48-2.4 2.1-2.26 1.36.12 1.43 1.1.08 1.26-1.17.13-1.28.98-.17 1.32 2 .6 2.63 2.37 1.32 3.68-.76.77-1.93.9-2.91.33zM7.2 116.33c.2-.63 8.08-.63 8.29 0 .11.34-.87.44-4.15.44-3.27 0-4.25-.1-4.14-.44zm53.62-.5c-.43-.1-.8-.4-.8-.67 0-.28-.23-.5-.52-.5-.3 0-.53.23-.53.52 0 .3-.31.53-.7.53-.58 0-.71-.23-.71-1.26 0-1.02.11-1.23.62-1.09 1.98.54 2.77.58 3.67.21.78-.32 1.12-.32 1.53.02.3.25.9.34 1.4.21.88-.22 1.24.25.53.68-.4.25-.13.88.38.88.19 0 .34-.23.34-.52 0-.66 1.2-1.3 1.91-1.03.66.25.73 1.33.11 1.8-.24.18-1.23.28-2.2.2-2.27-.16-2.3-.16-3.35.03-.49.08-1.24.08-1.68-.01zm9.49-.2c-.64-.64-.48-1.27.48-1.9.7-.45 1-.48 1.4-.15.28.24.66.33.84.22.57-.35 1.46.18 1.46.87 0 .36-.2.77-.43.92-.72.44-3.32.46-3.75.03zm6.11.13c-.31-.32-.16-1.77.21-2 .57-.36.84.1.38.65-.22.27-.3.59-.16.72.44.44.82.22.82-.48 0-.75.04-.76 3.17-.81 1.11-.02 2.15-.24 2.43-.51.4-.4.59-.38 1.14.13.55.5.82.53 1.58.19.5-.23 1.09-.3 1.32-.15.56.37 5.17.4 5.17.03 0-.61 1.38-.25 1.6.42.25.81.81.92 1.08.22.13-.33.72-.46 1.84-.42.91.04 1.87-.1 2.13-.29.32-.24.68-.22 1.13.06.44.28.73.3.88.05.32-.5 1.22.3 1.22 1.08 0 1.03-.77 1.4-2.21 1.08a7.46 7.46 0 0 0-2.64-.02c-2.33.48-5.73.05-5.73-.73 0-.18-.24-.33-.53-.33-.3 0-.53.16-.53.36 0 .19-.3.35-.65.35-.35 0-.76.12-.9.26-.61.6-6.92.01-6.92-.65 0-.17-.23-.32-.53-.32-.29 0-.53.14-.53.32 0 .57-4.27 1.29-4.77.79zm3.06-.93c0-.19-.17-.4-.38-.46-.2-.07-.37.14-.37.46s.17.53.37.46c.21-.07.38-.28.38-.46zm-49.2-.09c-.18-.28-1.16-.44-2.73-.44H25.1v-1.28c0-1.05-.08-1.2-.49-.87-.37.3-.7.3-1.4 0-.69-.32-1.03-.33-1.4-.01-.6.49-1.5.2-1.8-.56-.16-.42-.03-.5.57-.34.43.12 1 .03 1.25-.18.34-.29.7-.29 1.32 0 1.05.48 2.66-.22 3.51-1.53.82-1.25 1.2-1.1 2 .8.4.92 1.04 1.93 1.43 2.23.5.38.68.87.6 1.59-.08.68-.22.88-.4.6zm-23.17-.8c0-.2 1.65-.35 4.23-.35 2.6 0 4.24.14 4.24.36 0 .21-1.65.35-4.24.35-2.58 0-4.23-.14-4.23-.35zm.25-1.98c-.7-.7.13-.85 4.07-.76 2.66.06 4.3.24 4.24.45-.1.4-7.93.7-8.31.3zm25.15-.48c-.45-.29-.38-.63.53-2.37.58-1.13 1.3-2.04 1.59-2.04.29 0 1 .91 1.59 2.04 1.23 2.37 1.03 2.71-1.6 2.71a5.4 5.4 0 0 1-2.1-.34zm11.3 0c0-.2-1.07-.35-2.47-.35-2.32 0-2.48-.06-2.68-.86-.36-1.45.12-2.32 1.3-2.32.97 0 1.04.09.95 1.15-.13 1.34.54 1.76.7.45.12-.87.2-.9 2.48-.81 1.3.04 2.56-.05 2.81-.21.26-.16.68-.1.98.15.42.34.8.32 1.84-.11 1.56-.64 3.2-.76 3.78-.27.23.19 1.05.4 1.83.47.78.07 1.6.24 1.82.38.28.17.33-.08.18-.87-.16-.76-.07-1.2.27-1.42.27-.17 3.67-.31 7.56-.32 5.76 0 7.2.1 7.77.53.67.52.67.53 0 1.06-.55.42-1.89.53-6.64.53h-5.94l-.51 1.2-.5 1.21-6.9-.04c-4.91-.03-7 .08-7.3.38-.51.51-1.34.55-1.34.07zM4.98 107.6c0-.7.17-.72 12.88-.72 12.72 0 12.88.01 12.88.72 0 .6-.11.66-.68.35-.44-.23-4.94-.36-12.2-.36-7.26 0-11.76.13-12.2.36-.56.3-.68.25-.68-.35zM22.2 96.73c-.72-.87-.57-1.64.34-1.77.6-.08.74.02.58.45-.12.3-.03.77.19 1.04.3.37.28.53-.1.68-.28.1-.73-.08-1-.4zm9.78.28c-.12-.19-.76-.35-1.43-.35-.87 0-1.21-.16-1.21-.55 0-.4.2-.49.7-.33.5.16.7.06.7-.33 0-.4.36-.55 1.23-.55.95 0 1.18.12 1.02.53-.11.3-.02.75.2 1.02.3.37.27.53-.17.7-.74.28-.78.28-1.04-.14zm2.57-.15c-.8-.58-.56-1.76.37-1.9.57-.08.71.03.55.45-.12.3-.03.77.19 1.04.55.66-.33.99-1.11.41zm-18.5-1.09c.51-1.12 1.77-1.05 1.93.1.1.69-.04.8-1.1.8-1.2 0-1.22-.04-.83-.9zm8.44.62c-.36-.24-.35-.42 0-.92.35-.47.86-.6 2.14-.5 1.54.1 1.65.16 1.22.73-.51.7-2.69 1.15-3.36.69zm-18.34-1.1c.63-1.5.91-1.62 1.3-.6.52 1.36.48 1.44-.66 1.48-.97.03-1-.01-.64-.88zm13.3.49c0-.3.17-.53.36-.53.2 0 .35.24.35.53 0 .29-.15.53-.35.53-.2 0-.35-.24-.35-.53zm-14.1-7.55c0-1.9.27-2.15 2.3-2.15 2.01 0 2.28.25 2.28 2.15v1.73H5.34zm24.35.93c0-.63.17-.97.52-.97.67 0 .67.39.01 1.26-.5.66-.52.64-.53-.29zm-18-1.14c0-1.53.04-1.59 1.05-1.59.74 0 1.22.27 1.64.91.52.78.64.83.92.34.25-.45.66-.52 2-.34 1 .13 2 .07 2.42-.16.55-.3.81-.26 1.14.13.36.44.53.43 1.26-.05 1.46-.95 2.38.02 1.7 1.79-.24.62-1.74.76-2.09.19-.12-.2-.51-.28-.87-.16-.36.1-.76.01-.9-.22-.2-.3-.4-.24-.73.22-.39.53-.55.56-1.02.17-.42-.35-.65-.36-.96-.05-.53.53-1.78.52-2.32-.02-.33-.33-.51-.33-.84 0-.24.23-.87.43-1.41.43-.94 0-1-.09-1-1.6zm1.7-.42c-.48-.59-1.05.04-.75.84.15.37.3.38.68.07.38-.32.4-.52.08-.9zm20.3 1.1c.13-.31.22-.7.22-.89 0-.18.24-.32.53-.32.33 0 .53.33.53.88 0 .66-.18.88-.74.88-.54 0-.68-.16-.53-.56zm9.17.03c-.45-1.17 2.17-1.77 3.05-.7.58.69.45.79-1.33 1.07-1.22.2-1.53.13-1.72-.37zm4.46.32c0-.1.15-.49.34-.84.29-.53.82-.65 3-.68 1.46-.03 2.66.1 2.66.28 0 .18.1.58.21.88.14.37.02.56-.35.56a.56.56 0 0 1-.57-.55c0-.47-.14-.46-1.08.1-1.07.62-1.08.62-1.72-.23l-.65-.85-.47.77c-.43.68-1.37 1.07-1.37.56zm-9.1-1.28c-.58-.58-.54-.99.1-.99.3 0 .53.32.53.7 0 .83-.06.86-.63.3zm2.75-.12c0-.28.24-.51.53-.51.29 0 .53.14.53.31 0 .17-.24.4-.53.52-.32.12-.53 0-.53-.32zm80.7-13.31c-.85-.65-1.06-.68-1.84-.27-.7.38-.98.39-1.41.02-1.25-1.03-.13-2.9 1.32-2.2.43.2 1.22.47 1.76.59a2.1 2.1 0 0 1 1.39 1.1c.57 1.25-.05 1.64-1.22.76zM.25 64.82c.13-.63.4-1.34.6-1.58.5-.63 18.66-.64 19.67 0 .56.34.85.34 1.4 0 1-.63 19.48-.63 20.47 0 .56.34.85.34 1.4 0 .52-.33 3.29-.45 10.36-.45 9.2 0 9.68.04 10.29.71.53.59.57.86.24 1.59l-.4.88H0zm104.83.92c-.7-.69 1.14-.83 10.88-.83 9.31 0 10.74.07 10.74.53s-1.42.53-10.7.53c-5.88 0-10.8-.1-10.92-.23zm-39.76-1.53c0-.2.63-.36 1.41-.36.78 0 1.41.16 1.41.36 0 .19-.63.35-1.4.35-.79 0-1.42-.16-1.42-.35zm7.13-2c-.45-.1-1.33-.7-1.98-1.34-2-2-2.01-4.72-.02-6.7a4.5 4.5 0 0 1 6.68 0 4.34 4.34 0 0 1 1.04 5.07 4.96 4.96 0 0 1-5.72 2.96zm38.62-3.93c-.52-.55-.95-1.13-.95-1.3 0-.5 1.85-2.3 2.36-2.3.26 0 .46.39.46.86 0 .6.23.89.77.97 1.11.16 1.2.93.14 1.2-.57.14-.9.47-.9.89 0 .96-.78.82-1.88-.32zm8.22.32c0-.42-.33-.75-.9-.9-1.06-.26-.97-1.03.14-1.2.54-.07.76-.35.76-.96 0-.47.13-.86.28-.86.5 0 1.83 1.09 2.22 1.82.33.6.23.89-.59 1.74-1.13 1.18-1.9 1.32-1.9.36zM64.61 46.74c0-.43.62-.53 3.27-.56a62.2 62.2 0 0 0 5.2-.27c1.67-.2 1.96-.34 2.05-1.03.07-.47-.25-1.24-.79-1.88-.97-1.15-1.22-3.04-.48-3.77.56-.57 5.64-.57 6.2 0 .76.75.5 2.95-.45 4.1-1.02 1.2-.87 2.07.42 2.56.47.18 6.25.32 12.83.32 10.4 0 11.97.07 11.97.53 0 .47-2.47.53-20.1.53-17.65 0-20.12-.06-20.12-.53zm26.82-5.72c-4.82-.12-5.3-.24-5.3-1.34v-.87h12.48c10.4 0 12.55.08 12.9.5.34.4.26.62-.44 1.07-.7.47-2.18.58-8.4.65-4.15.04-9.2.04-11.24-.01zM7.82 39.5a222.7 222.7 0 0 1-7.68-.28C.1 39.19.06 35.76.06 31.6c0-5.77.1-7.59.44-7.72.7-.27 19.8-.32 20.85-.06l.93.24v7.1c0 3.9-.13 7.3-.28 7.53-.36.57-3.08 1.16-5.01 1.08-.87-.04-5-.16-9.17-.27zm.46-7.39c1.71-1.63 1.8-1.79 1.24-2.34-.55-.55-.69-.49-2.2 1-1.5 1.48-2.15 3.09-1.24 3.09.2 0 1.2-.79 2.2-1.75zm6.98-1.45l-.9-.92-.92.9-.92.91.9.92.91.92.92-.9.92-.91zm93.26 5.92c-.1-.25-.14-2.76-.08-5.56l.1-5.1h16.22v10.94l-8.03.09c-6.38.08-8.07 0-8.21-.37zm10.08-3.4a4.17 4.17 0 0 1-.36-1.65c0-1.28-.94-2.26-2.15-2.26-1.03 0-2.09 1.08-2.09 2.13 0 .9 1.47 2.04 2.83 2.2l1.68.2c.34.04.37-.11.1-.63zm-3.19-1.09c-.57-.57-.64-.86-.34-1.42.41-.78 1.4-.91 2.04-.27.64.64.5 1.62-.28 2.04-.55.3-.84.23-1.42-.35zm-63.34-8.5c-.13-.2-.03-1.08.2-1.94.39-1.36.37-1.65-.13-2.2-.78-.86-.73-1.32.32-3.11.88-1.5.93-1.53 2.8-1.53 1.05 0 2 .17 2.14.37.48.78.2 2.77-.52 3.75-.72.97-.73 1.09-.2 2.58.3.85.47 1.76.37 2.01-.22.57-4.63.64-4.98.08zm33.86-.47a19.5 19.5 0 0 1 .08-3.96l.3-3.12 1.59-.28c4.09-.72 7.67-.92 9.88-.57 1.38.22 3.76.27 6 .11 4.86-.34 7.18-.28 8.08.2 1.01.54 1.7 2.36 1.99 5.24l.23 2.44-1.15.4c-.78.27-5.3.4-13.97.4H86.15zm30.9-5.69c0-.3.24-1.01.53-1.58.5-.96.7-1.04 2.46-1.04 1.8 0 1.96.07 2.49 1.09.93 1.79.55 2.08-2.65 2.08-2.32 0-2.83-.1-2.83-.55zM2.38 11.91l-.57-1.93c-.78-2.6.71-4.69 3.38-4.69.93 0 1.54-.27 2.3-1.03 1.93-1.93 4.53-1.84 6.34.22 1.18 1.34 1.24 2.2.45 5.93l-.3 1.4-2.3-.12a11.02 11.02 0 0 1-2.88-.45c-.42-.22-1.01-.1-1.94.4-1.49.8-4.28.96-4.48.27zm4.6-1.72c.77-.73.86-.74 2.02-.18.67.31 1.83.57 2.58.57 1.27 0 1.38-.08 1.8-1.4.64-2.07.54-3.11-.42-4.07C11.3 3.44 9 3.68 7.9 5.65c-.56 1-.7 1.05-2.1.84-2.44-.36-3.67 1.26-2.72 3.55.49 1.16.61 1.23 1.8 1.08.72-.1 1.66-.5 2.1-.93zM3.82 10c-.13-.12-.24-.66-.24-1.19 0-1.77 1.72-2.31 2.7-.85.4.62.39.84-.08 1.5-.51.74-1.88 1.05-2.38.55zm5.06-1.17c-1.45-1.44-.37-3.88 1.7-3.88 1.76 0 2.55 1.55 1.95 3.8-.17.64-.46.79-1.58.79-.9 0-1.61-.25-2.07-.71zm81.49.35c-1.45-1.44-.48-3.88 1.54-3.88 2.26 0 3.32 1.93 1.98 3.63a2.3 2.3 0 0 1-3.52.25zM92.48 8c0-.9-.3-1.37-.7-1.12-.35.22 0 1.94.4 1.94.16 0 .3-.37.3-.82zm18.5 1.4c-.24-.63.8-3.82 1.35-4.17.64-.4 1.67.37 1.67 1.24 0 .44.18.97.39 1.18.2.21.33.76.26 1.22-.1.72-.34.85-1.8.94-1.22.08-1.73-.03-1.87-.4zM97.49 8.04c-.68-.68-.49-.98.64-.98s1.32.3.63.98c-.53.53-.74.53-1.27 0zm21.52 0c-.68-.68-.49-.98.64-.98s1.32.3.63.98c-.53.53-.74.53-1.27 0z" fill="#dfd59e"/>
  <path d="M5.08 213.53c-.85-.3-.42-1.59 1.06-3.12 1.57-1.63 2.37-1.9 3.07-1.06.34.42.14.82-1.08 2.14-1.65 1.8-2.38 2.28-3.05 2.04zM5 127.49c0-.42.17-.49.62-.26.34.16 5.86.3 12.26.3 6.4 0 11.92-.14 12.26-.3.46-.23.62-.16.62.26 0 .51-1.29.57-12.88.57S5 128 5 127.49zm28.02-3.84c0-.99.1-1.1 1.09-1.1.99 0 1.1.11 1.1 1.1 0 .99-.11 1.1-1.1 1.1-.99 0-1.1-.11-1.1-1.1zm9.64 1c-.1-.16-.05-.61.1-1 .25-.67.28-.67.53-.07.26.65-.31 1.62-.63 1.07zm2.2-.65c0-.33.34-.53.9-.53.54 0 .87.2.87.53s-.33.53-.88.53-.88-.2-.88-.53zm-37.2-.53c-.15-.23 1.23-.35 3.87-.35s4.02.12 3.88.35c-.12.2-1.82.36-3.88.36-2.06 0-3.76-.16-3.88-.36zm30.86-.7c0-.2.17-.36.37-.36.2 0 .28.16.16.36-.12.2-.29.35-.38.35-.08 0-.15-.16-.15-.35zM7.64 121c-.14-.22 1.17-.35 3.68-.35 2.37 0 3.9.14 3.9.35 0 .22-1.46.36-3.68.36-2.07 0-3.78-.16-3.9-.36zm1.68-2.37c1.11-.07 2.94-.07 4.05 0 1.12.07.2.12-2.03.12s-3.14-.05-2.02-.12zm33.98-1c-.33-1.32-.07-1.5 2.17-1.43 1.81.06 2.05.15 2.15.85.1.7-.04.78-1.48.78-.88 0-1.69.16-1.81.35-.38.61-.8.39-1.03-.54zm1.56-.86c0-.2-.16-.35-.35-.35-.2 0-.36.16-.36.35 0 .2.16.35.36.35.19 0 .35-.16.35-.35zm-6.82 1.18a1.16 1.16 0 0 1-.24-.71c0-.39.14-.4.72-.03.59.36.77.35 1.03-.06.67-1.07-.42-1.91-1.32-1.02-.33.33-.43.3-.43-.15 0-.93.67-1.08 1.7-.39.52.36 1.41.65 1.98.65 1.11 0 1.43.42.93 1.21-.25.4-.5.43-1.16.13-.63-.29-1.05-.26-1.7.1-1 .55-1.2.59-1.51.27zm-5.18-1.36c0-1.17.06-1.23 1.24-1.23s1.23.06 1.23 1.23c0 1.18-.05 1.24-1.23 1.24s-1.24-.06-1.24-1.24zm79.12.81c-.54-.68.03-1.83 1.47-2.93.7-.53 1.26-1.18 1.26-1.46 0-.77-1.1-1.02-1.59-.35-.62.84-1.3.72-1.17-.2.06-.46.54-1 1.1-1.27.85-.4 1.11-.4 1.85.09.47.3.96.99 1.1 1.5.2.82.01 1.14-1.3 2.27l-1.52 1.31 1.2.12c.79.07 1.21.3 1.21.64 0 .7-3.07.95-3.6.28zm5.11.05c-.72-.42-.83-1.39-.16-1.39.25 0 .64.18.86.4.62.63 1.57.08 1.44-.84-.1-.65-.33-.8-1.35-.8h-1.23l.02-1.7c.03-1.91.48-2.4 2.1-2.26 1.36.12 1.43 1.1.08 1.26-1.17.13-1.28.98-.17 1.32 2 .6 2.63 2.37 1.32 3.68-.76.77-1.93.9-2.91.33zm-68.7-.84c0-.3.16-.55.35-.55.2 0 .35.15.35.34 0 .18-.16.43-.35.55-.2.12-.35-.03-.35-.34zm1.58-.2c-.28-.46.14-1.12.56-.86.43.26.42 1.22 0 1.22-.19 0-.44-.16-.56-.35zm-40.65-.25c1.11-.07 2.94-.07 4.05 0 1.12.07.2.12-2.03.12s-3.14-.05-2.02-.12zm51.5-.33c-.43-.1-.8-.4-.8-.67 0-.28-.23-.5-.52-.5-.3 0-.53.23-.53.52 0 .3-.31.53-.7.53-.58 0-.71-.23-.71-1.26 0-1.02.11-1.23.62-1.09 1.98.54 2.77.58 3.67.21.78-.32 1.12-.32 1.53.02.3.25.9.34 1.4.21.88-.22 1.24.25.53.68-.4.25-.13.88.38.88.19 0 .34-.23.34-.52 0-.66 1.2-1.3 1.91-1.03.66.25.73 1.33.11 1.8-.24.18-1.23.28-2.2.2-2.27-.16-2.3-.16-3.35.03-.49.08-1.24.08-1.68-.01zm9.49-.2c-.64-.64-.48-1.27.48-1.9.7-.45 1-.48 1.4-.15.28.24.66.33.84.22.57-.35 1.46.18 1.46.87 0 .36-.2.77-.43.92-.72.44-3.32.46-3.75.03zm6.11.13c-.31-.32-.16-1.77.21-2 .57-.36.84.1.38.65-.22.27-.3.59-.16.72.44.44.82.22.82-.48 0-.75.04-.76 3.17-.81 1.11-.02 2.15-.24 2.43-.51.4-.4.59-.38 1.14.13.55.5.82.53 1.58.19.5-.23 1.09-.3 1.32-.15.56.37 5.17.4 5.17.03 0-.61 1.38-.25 1.6.42.25.81.81.92 1.08.22.13-.33.72-.46 1.84-.42.91.04 1.87-.1 2.13-.29.32-.24.68-.22 1.13.06.44.28.73.3.88.05.32-.5 1.22.3 1.22 1.08 0 1.03-.77 1.4-2.21 1.08a7.46 7.46 0 0 0-2.64-.02c-2.33.48-5.73.05-5.73-.73 0-.18-.24-.33-.53-.33-.3 0-.53.16-.53.36 0 .19-.3.35-.65.35-.35 0-.76.12-.9.26-.61.6-6.92.01-6.92-.65 0-.17-.23-.32-.53-.32-.29 0-.53.14-.53.32 0 .57-4.27 1.29-4.77.79zm3.06-.93c0-.19-.17-.4-.38-.46-.2-.07-.37.14-.37.46s.17.53.37.46c.21-.07.38-.28.38-.46zm-70.16-.8c1.11-.06 2.94-.06 4.05 0 1.12.08.2.14-2.03.14s-3.14-.06-2.02-.13zm16.06.07c-.13-.13-.15-.72-.03-1.3.2-1.03.17-1.06-.76-.83-.56.14-1.16.08-1.44-.15-.35-.29-.67-.28-1.23.01-.41.23-1.02.3-1.34.15-.83-.35 1.56-.9 2.82-.65 1.12.23 2.94-.62 3.47-1.62.58-1.09.89-.86 1.9 1.38.5 1.14 1.16 2.17 1.45 2.28 1.15.44.4.76-2.04.86-1.4.07-2.67 0-2.8-.13zm-18.1-2.62c.13-.2 1.89-.36 4.06-.36 2.18 0 3.94.16 4.06.36.14.23-1.3.35-4.06.35s-4.2-.12-4.05-.35zm50.44-3.55c-.55-.9.69-1.05 7.63-.96 6.12.08 7.2.18 7.2.63s-1.09.54-7.3.62c-5.04.07-7.36-.02-7.53-.3zM5 107.33c0-.34 2.82-.44 12.88-.44 10.07 0 12.88.1 12.88.44 0 .35-2.81.44-12.88.44-10.06 0-12.88-.1-12.88-.44zm27-10.8c-.4-.28-.5-.55-.28-.7.2-.12.57.02.81.31.6.73.27.98-.53.4zm2.52-.1c-.34-.35-.29-1.18.08-1.18.17 0 .4.32.5.7.17.7-.12.94-.58.48zm-12.39-.45c-.11-.18-.04-.43.16-.55.2-.12.35.03.35.33 0 .62-.2.7-.51.22zm2.52.1c-.28-.28.04-.83.48-.83.19 0 .34.24.34.53 0 .54-.42.7-.82.3zM6.8 94.7c.01-.41.1-.5.21-.21.1.25.09.56-.03.67-.12.12-.2-.09-.18-.46zm-1.27-5.1c-.13-.2-.12-1 0-1.76l.24-1.4h3.76l.24 1.4c.13.77.13 1.56 0 1.76-.12.2-1.07.37-2.12.37-1.04 0-2-.17-2.12-.37zm37.57-1.04c0-.2.16-.36.36-.36.2 0 .35.16.35.36 0 .2-.16.35-.35.35a.35.35 0 0 1-.36-.35zm78.6-14.21c-.86-.65-1.07-.68-1.85-.27-.7.38-.98.39-1.41.02-1.25-1.03-.13-2.9 1.32-2.2.43.2 1.22.47 1.76.59a2.1 2.1 0 0 1 1.39 1.1c.57 1.25-.05 1.64-1.22.76zM.24 64.82c.13-.63.4-1.34.6-1.58.5-.63 18.66-.64 19.67 0 .56.34.85.34 1.4 0 1-.63 19.48-.63 20.47 0 .56.34.85.34 1.4 0 .52-.33 3.29-.45 10.36-.45 9.2 0 9.68.04 10.29.71.53.59.57.86.24 1.59l-.4.88H0zm104.83.92c-.7-.69 1.14-.83 10.88-.83 9.31 0 10.74.07 10.74.53s-1.42.53-10.7.53c-5.88 0-10.8-.1-10.92-.23zM72.45 62.2c-.45-.09-1.33-.69-1.98-1.33-2-2-2.01-4.72-.02-6.7a4.5 4.5 0 0 1 6.68 0 4.34 4.34 0 0 1 1.04 5.07 4.96 4.96 0 0 1-5.72 2.96zm38.62-3.92c-.52-.55-.95-1.13-.95-1.3 0-.5 1.85-2.3 2.36-2.3.26 0 .46.39.46.86 0 .6.23.89.77.97 1.11.16 1.2.93.14 1.2-.57.14-.9.47-.9.89 0 .96-.78.82-1.88-.32zm8.22.32c0-.42-.33-.75-.9-.9-1.06-.26-.97-1.03.14-1.2.54-.07.76-.35.76-.96 0-.47.13-.86.28-.86.5 0 1.83 1.09 2.22 1.82.33.6.23.89-.59 1.74-1.13 1.18-1.9 1.32-1.9.36zM64.61 46.74c0-.43.62-.53 3.27-.56a62.2 62.2 0 0 0 5.2-.27c1.67-.2 1.96-.34 2.05-1.03.07-.47-.25-1.24-.79-1.88-.97-1.15-1.22-3.04-.48-3.77.56-.57 5.64-.57 6.2 0 .76.75.5 2.95-.45 4.1-1.02 1.2-.87 2.07.42 2.56.47.18 6.25.32 12.83.32 10.4 0 11.97.07 11.97.53 0 .47-2.47.53-20.1.53-17.65 0-20.12-.06-20.12-.53zm30.6-5.7c.25-.1.65-.1.89 0s.04.18-.44.18c-.49 0-.68-.08-.44-.18zm2.66 0c.34-.1.82-.1 1.06 0 .24.1-.04.17-.63.17-.58-.01-.77-.09-.43-.18zm2.47-.02a6.3 6.3 0 0 1 1.76 0c.44.09 0 .16-.97.15-.97 0-1.33-.07-.8-.15zm10.49-1.11c0-.41.15-.75.33-.75.61 0 .72.62.2 1.06-.44.36-.53.31-.53-.31zM7.82 39.5a222.7 222.7 0 0 1-7.68-.28C.1 39.19.06 35.76.06 31.6c0-5.77.1-7.59.44-7.72.7-.27 19.8-.32 20.85-.06l.93.24v7.1c0 3.9-.13 7.3-.28 7.53-.36.57-3.08 1.16-5.01 1.08-.87-.04-5-.16-9.17-.27zm.46-7.39c1.71-1.63 1.8-1.79 1.24-2.34-.55-.55-.69-.49-2.2 1-1.5 1.48-2.15 3.09-1.24 3.09.2 0 1.2-.79 2.2-1.75zm6.98-1.45l-.9-.92-.92.9-.92.91.9.92.91.92.92-.9.92-.91zm93.26 5.92c-.1-.25-.14-2.76-.08-5.56l.1-5.1h16.22v10.94l-8.03.09c-6.38.08-8.07 0-8.21-.37zm10.08-3.4a4.17 4.17 0 0 1-.36-1.65c0-1.28-.94-2.26-2.15-2.26-1.03 0-2.09 1.08-2.09 2.13 0 .9 1.47 2.04 2.83 2.2l1.68.2c.34.04.37-.11.1-.63zm-3.19-1.09c-.57-.57-.64-.86-.34-1.42.41-.78 1.4-.91 2.04-.27.64.64.5 1.62-.28 2.04-.55.3-.84.23-1.42-.35zm-63.34-8.5c-.13-.2-.03-1.08.2-1.94.39-1.36.37-1.65-.13-2.2-.78-.86-.73-1.32.32-3.11.88-1.5.93-1.53 2.8-1.53 1.05 0 2 .17 2.14.37.48.78.2 2.77-.52 3.75-.72.97-.73 1.09-.2 2.58.3.85.47 1.76.37 2.01-.22.57-4.63.64-4.98.08zm58.75-.15c-.31-.38-.39-1.4-.26-3.48.1-1.63.06-3.15-.09-3.4-.48-.77-3.7-1-9.95-.72-3.74.17-6.44.14-6.98-.06l-.88-.34.88-.35c.6-.23 1.9-.2 4 .07a30 30 0 0 0 5.87.18c4.22-.38 7.55-.32 8.4.14 1.06.56 1.75 2.35 2.04 5.26l.23 2.44-1.15.4c-1.47.51-1.57.5-2.1-.14zm6-6c0-.3.25-1.02.54-1.6.5-.95.7-1.03 2.46-1.03 1.8 0 1.96.07 2.49 1.09.93 1.79.55 2.08-2.65 2.08-2.32 0-2.83-.1-2.83-.55zM2.39 11.9l-.57-1.93c-.78-2.6.71-4.69 3.38-4.69.93 0 1.54-.27 2.3-1.03 1.93-1.93 4.53-1.84 6.34.22 1.18 1.34 1.24 2.2.45 5.93l-.3 1.4-2.3-.12a11.02 11.02 0 0 1-2.88-.45c-.42-.22-1.01-.1-1.94.4-1.49.8-4.28.96-4.48.27zm4.6-1.72c.77-.73.86-.74 2.02-.18.67.31 1.83.57 2.58.57 1.27 0 1.38-.08 1.8-1.4.64-2.07.54-3.11-.42-4.07C11.3 3.44 9 3.68 7.9 5.65c-.56 1-.7 1.05-2.1.84-2.44-.36-3.67 1.26-2.72 3.55.49 1.16.61 1.23 1.8 1.08.72-.1 1.66-.5 2.1-.93zM3.82 10c-.13-.12-.24-.66-.24-1.19 0-1.77 1.72-2.31 2.7-.85.4.62.39.84-.08 1.5-.51.74-1.88 1.05-2.38.55zm5.06-1.17c-1.45-1.44-.37-3.88 1.7-3.88 1.76 0 2.55 1.55 1.95 3.8-.17.64-.46.79-1.58.79-.9 0-1.61-.25-2.07-.71zm81.49.35c-1.45-1.44-.48-3.88 1.54-3.88 2.26 0 3.32 1.93 1.98 3.63a2.3 2.3 0 0 1-3.52.25zM92.48 8c0-.9-.3-1.37-.7-1.12-.35.22 0 1.94.4 1.94.16 0 .3-.37.3-.82zm18.5 1.4c-.24-.63.8-3.82 1.35-4.17.64-.4 1.67.37 1.67 1.24 0 .44.18.97.39 1.18.2.21.33.76.26 1.22-.1.72-.34.85-1.8.94-1.22.08-1.73-.03-1.87-.4zM97.49 8.04c-.68-.68-.49-.98.64-.98s1.32.3.63.98c-.53.53-.74.53-1.27 0zm21.52 0c-.68-.68-.49-.98.64-.98s1.32.3.63.98c-.53.53-.74.53-1.27 0z" fill="#a2a6a5"/>
  <path d="M5.35 212.4c0-.65 2.52-3.2 3.16-3.2.66 0 .39.87-.68 2.17-1.21 1.46-2.48 1.99-2.48 1.03zm27.87-95.8c0-.71.17-.89.88-.89.7 0 .88.18.88.88s-.18.88-.88.88-.88-.17-.88-.88zm79.14.34c-.14-.37.09-.87.6-1.35.46-.42.62-.49.37-.15-.26.34-.37.85-.26 1.14.1.28.04.61-.14.73-.19.12-.44-.05-.57-.37zm7.13-2.18c-.19-.5-.15-.55.2-.2.24.24.35.52.24.63-.1.11-.3-.09-.44-.43zm-4.92-.51c.37-.52.74-.87.82-.79.1.09-.21.5-.66.94l-.83.78zm2.32-.33c.07-.2.28-.38.46-.38.19 0 .4.17.47.38.07.2-.14.38-.47.38-.32 0-.53-.17-.46-.38zm-91.08-.77c0-.9 1.11-3.16 1.63-3.33.4-.14 1.96 3.39 1.69 3.82-.1.17-.9.3-1.75.3-1.4 0-1.57-.08-1.57-.8zm89.1-.86c-.2-.5-.15-.55.2-.2.24.24.34.52.24.63-.11.11-.31-.09-.44-.43zm2.27-.46c0-.2.25-.35.55-.35.3 0 .45.16.33.35-.12.2-.37.35-.55.35-.18 0-.33-.16-.33-.35zM6.94 87.5c-.13-.2.17-.35.7-.35.53 0 .83.15.7.35-.11.2-.43.35-.7.35-.27 0-.58-.16-.7-.35zm114.74-13.15c-.85-.65-1.06-.68-1.84-.27-.7.38-.98.39-1.41.02-1.25-1.03-.13-2.9 1.32-2.2.43.2 1.22.47 1.76.59a2.1 2.1 0 0 1 1.39 1.1c.57 1.25-.05 1.64-1.22.76zM.25 64.82c.44-2.08.15-2.03 10.44-2.03h9.5l.33.89c.18.48.5.88.7.88.2 0 .52-.4.7-.88l.34-.89h19.8l.33.89c.43 1.12.98 1.12 1.41 0l.34-.9 9.95.1 9.94.1.3 1.05c.15.58.2 1.26.12 1.5-.13.35-6.92.44-32.3.44H0l.25-1.15zm104.83.92c-.7-.69 1.14-.83 10.88-.83 9.31 0 10.74.07 10.74.53s-1.42.53-10.7.53c-5.88 0-10.8-.1-10.92-.23zm-32.51-3.9a4.07 4.07 0 0 1-2.82-2.63c-1.7-4.27 2.84-7.86 6.75-5.33.43.28 1.05 1.2 1.37 2.06.56 1.47.56 1.66 0 3.12-.32.86-.96 1.8-1.4 2.1-.94.6-2.9.95-3.9.68zm38.5-3.56c-.52-.55-.95-1.13-.95-1.3 0-.5 1.85-2.3 2.36-2.3.26 0 .46.39.46.86 0 .6.23.89.77.97 1.11.16 1.2.93.14 1.2-.57.14-.9.47-.9.89 0 .96-.78.82-1.88-.32zm8.22.32c0-.42-.33-.75-.9-.9-1.06-.26-.97-1.03.14-1.2.54-.07.76-.35.76-.96 0-.47.13-.86.28-.86.5 0 1.83 1.09 2.22 1.82.33.6.23.89-.59 1.74-1.13 1.18-1.9 1.32-1.9.36zM64.61 46.8c0-.36 1.2-.55 5.03-.77 2.77-.16 6.14-.26 7.5-.22 1.36.03 8.14.15 15.08.25 10.75.15 12.61.26 12.61.7 0 .44-2.7.51-20.1.51-16.63 0-20.12-.08-20.12-.47zm-56.8-7.3a222.7 222.7 0 0 1-7.67-.27C.1 39.19.06 35.76.06 31.6c0-5.77.1-7.59.44-7.72.7-.27 19.8-.32 20.85-.06l.93.24v7.1c0 3.9-.13 7.3-.28 7.53-.36.57-3.08 1.16-5.01 1.08-.87-.04-5-.16-9.17-.27zm.47-7.38c1.71-1.63 1.8-1.79 1.24-2.34-.55-.55-.69-.49-2.2 1-1.5 1.48-2.15 3.09-1.24 3.09.2 0 1.2-.79 2.2-1.75zm6.98-1.45l-.9-.92-.92.9-.92.91.9.92.91.92.92-.9.92-.91zm93.26 5.92c-.1-.25-.14-2.76-.08-5.56l.1-5.1h16.22v10.94l-8.03.09c-6.38.08-8.07 0-8.21-.37zm10.08-3.4a4.17 4.17 0 0 1-.36-1.65c0-1.28-.94-2.26-2.15-2.26-1.03 0-2.09 1.08-2.09 2.13 0 .9 1.47 2.04 2.83 2.2l1.68.2c.34.04.37-.11.1-.63zm-3.19-1.09c-.57-.57-.64-.86-.34-1.42.41-.78 1.4-.91 2.04-.27.64.64.5 1.62-.28 2.04-.55.3-.84.23-1.42-.35zM52.8 22.67c.53-1.34.61-2.92.19-3.44-.62-.75-1.25-.67-.69.08.43.57.4.57-.22 0-.42-.4-.55-.74-.33-.89.2-.14.67-.85 1.05-1.58.78-1.48 1.48-1.83 3.01-1.5.88.2 1.05.4 1.05 1.3 0 .59-.31 1.47-.7 1.96-.39.5-.7 1.36-.7 1.92 0 1.46-.96 2.76-2.03 2.76-.7 0-.82-.13-.63-.61zM2.38 11.9l-.57-1.93c-.78-2.6.71-4.69 3.38-4.69.93 0 1.54-.27 2.3-1.03 1.93-1.93 4.53-1.84 6.34.22 1.18 1.34 1.24 2.2.45 5.93l-.3 1.4-2.3-.12a11.02 11.02 0 0 1-2.88-.45c-.42-.22-1.01-.1-1.94.4-1.49.8-4.28.96-4.48.27zm4.6-1.72c.77-.73.86-.74 2.02-.18.67.31 1.83.57 2.58.57 1.27 0 1.38-.08 1.8-1.4.64-2.07.54-3.11-.42-4.07C11.3 3.44 9 3.68 7.9 5.65c-.56 1-.7 1.05-2.1.84-2.44-.36-3.67 1.26-2.72 3.55.49 1.16.61 1.23 1.8 1.08.72-.1 1.66-.5 2.1-.93zM3.82 10c-.13-.12-.24-.66-.24-1.19 0-1.77 1.72-2.31 2.7-.85.4.62.39.84-.08 1.5-.51.74-1.88 1.05-2.38.55zm5.06-1.17c-1.45-1.44-.37-3.88 1.7-3.88 1.76 0 2.55 1.55 1.95 3.8-.17.64-.46.79-1.58.79-.9 0-1.61-.25-2.07-.71zm81.49.35c-1.45-1.44-.48-3.88 1.54-3.88 2.26 0 3.32 1.93 1.98 3.63a2.3 2.3 0 0 1-3.52.25zM92.48 8c0-.9-.3-1.37-.7-1.12-.35.22 0 1.94.4 1.94.16 0 .3-.37.3-.82zm18.5 1.4c-.24-.63.8-3.82 1.35-4.17.64-.4 1.67.37 1.67 1.24 0 .44.18.97.39 1.18.2.21.33.76.26 1.22-.1.72-.34.85-1.8.94-1.22.08-1.73-.03-1.87-.4zM97.49 8.04c-.68-.68-.49-.98.64-.98s1.32.3.63.98c-.53.53-.74.53-1.27 0zm21.52 0c-.68-.68-.49-.98.64-.98s1.32.3.63.98c-.53.53-.74.53-1.27 0z" fill="#60b3d1"/>
  <path d="M5.35 212.4c0-.65 2.52-3.2 3.16-3.2.66 0 .39.87-.68 2.17-1.21 1.46-2.48 1.99-2.48 1.03zm27.87-95.8c0-.71.17-.89.88-.89.7 0 .88.18.88.88s-.18.88-.88.88-.88-.17-.88-.88zm79.14.34c-.14-.37.09-.87.6-1.35.46-.42.62-.49.37-.15-.26.34-.37.85-.26 1.14.1.28.04.61-.14.73-.19.12-.44-.05-.57-.37zm7.13-2.18c-.19-.5-.15-.55.2-.2.24.24.35.52.24.63-.1.11-.3-.09-.44-.43zm-4.92-.51c.37-.52.74-.87.82-.79.1.09-.21.5-.66.94l-.83.78zm2.32-.33c.07-.2.28-.38.46-.38.19 0 .4.17.47.38.07.2-.14.38-.47.38-.32 0-.53-.17-.46-.38zm-91.08-.77c0-.9 1.11-3.16 1.63-3.33.4-.14 1.96 3.39 1.69 3.82-.1.17-.9.3-1.75.3-1.4 0-1.57-.08-1.57-.8zm89.1-.86c-.2-.5-.15-.55.2-.2.24.24.34.52.24.63-.11.11-.31-.09-.44-.43zm2.27-.46c0-.2.25-.35.55-.35.3 0 .45.16.33.35-.12.2-.37.35-.55.35-.18 0-.33-.16-.33-.35zM6.94 87.5c-.13-.2.17-.35.7-.35.53 0 .83.15.7.35-.11.2-.43.35-.7.35-.27 0-.58-.16-.7-.35zm114.74-13.8c-.34-.19-1.21-.3-1.94-.24-1 .08-1.33-.03-1.33-.42 0-.7 2.94-.54 3.69.19.64.63.38.92-.42.47zM.06 65.35c0-.35 6.67-.44 32.17-.44 21.1 0 32.05.12 31.83.35-.57.56-64 .65-64 .1zm125.94.09c0-.3.16-.53.35-.53.2 0 .35.24.35.53 0 .3-.16.53-.35.53-.2 0-.35-.24-.35-.53zM72.1 59.9c-.24-.23-.43-1.31-.43-2.4 0-2.32.38-2.82 2.16-2.82 1.56 0 2.43.74 2.43 2.09 0 .93-.92 2.14-1.62 2.14-.18 0-.53.32-.77.7-.5.8-1.16.91-1.78.3zm39.13-2l-.82-.81.81-.87c.8-.85.82-.85 1.08-.14.16.42.6.73 1.07.75.76.02.75.05-.14.37-.52.2-1 .61-1.06.94-.1.5-.23.47-.94-.23zm8.77.17c0-.28-.44-.67-.97-.86-.92-.34-.93-.36-.14-.38.52-.02.9-.3 1.01-.75.18-.68.23-.69.85-.12.86.78.84 1.77-.04 2.25-.56.3-.7.27-.7-.14zm-45.5-11.5c.28-.2 1.47-.35 2.64-.35 1.16 0 2.35.16 2.64.35.37.23-.46.34-2.64.34s-3.01-.1-2.65-.34zM.05 31.45c0-6.73.06-7.51.55-7.32.31.12 5.15.21 10.76.21h10.2v14.47l-1.32.04c-.73.03-5.57.07-10.76.1l-9.43.03zm8.5 1.12c1.82-1.71 2.1-2.7.97-3.4-.46-.3-.96-.05-2.38 1.14-1.74 1.46-2.47 2.76-2 3.54.49.77 1.7.31 3.4-1.28zm7.05.27a4.98 4.98 0 0 0 1.03-1.27c0-.3-2-2.29-2.3-2.29-.3 0-2.29 2-2.29 2.29 0 .33 1.89 2.26 2.23 2.28.16 0 .76-.45 1.33-1.01zm93.26 3.4c-.1-.26-.14-2.6-.08-5.21l.1-4.75h15.52v10.23l-7.68.1c-6.1.07-7.72 0-7.86-.37zm10.42-2.35c0-.38-.14-.78-.31-.88-.18-.11-.3-.75-.29-1.42.05-1.61-.92-2.66-2.45-2.66-1.42 0-2.59 1.04-2.59 2.3 0 1.33 1.47 2.64 2.96 2.64.68 0 1.33.16 1.45.35.38.61 1.23.38 1.23-.33zm-3.88-2.45c0-.86.45-1.18 1.22-.88.82.31.52 1.34-.43 1.48-.59.08-.79-.06-.79-.6zM52.8 22.67c.59-1.46.6-3.12.04-3.59-.72-.6-.71-1.12.05-2.47.72-1.27 1.46-1.58 2.92-1.26.88.2 1.05.4 1.05 1.3 0 .58-.31 1.46-.7 1.95-.39.5-.7 1.36-.7 1.92 0 1.46-.96 2.76-2.03 2.76-.7 0-.82-.12-.63-.61zM7.64 10.22c.13-.2.37-.26.55-.15.5.3.4.51-.22.51-.3 0-.45-.16-.33-.36zm-3.47-.58c-.4-.4-.26-1.42.25-1.84.7-.58 1.63-.1 1.63.84 0 .96-1.25 1.63-1.88 1zm107.12-.7c-.13-.34.02-.75.36-1 .33-.24.59-.86.59-1.39 0-.72.15-.93.62-.83.43.09.59.4.52 1.04-.06.57.11 1 .44 1.13.3.1.54.52.54.92 0 .6-.23.72-1.43.72-.99 0-1.49-.18-1.64-.59zM9 8.28C7.78 6.4 10.2 4.34 11.78 5.92c.57.57.67.97.48 1.98-.22 1.17-.34 1.27-1.45 1.27-.9 0-1.36-.22-1.8-.9zm81.19-.15c-.23-.7.32-2.13.8-2.13.15 0 .2.63.13 1.4-.14 1.52-.58 1.85-.93.73zm2.85.13c-.12-.3-.21-.95-.21-1.44 0-1.39.86-.78.99.7.1 1.31-.38 1.78-.78.74z" fill="#1699c6"/>
  <path d="M5.35 212.4c0-.65 2.52-3.2 3.16-3.2.66 0 .39.87-.68 2.17-1.21 1.46-2.48 1.99-2.48 1.03zm27.87-95.8c0-.71.17-.89.88-.89.7 0 .88.18.88.88s-.18.88-.88.88-.88-.17-.88-.88zm79.14.34c-.14-.37.09-.87.6-1.35.46-.42.62-.49.37-.15-.26.34-.37.85-.26 1.14.1.28.04.61-.14.73-.19.12-.44-.05-.57-.37zm7.13-2.18c-.19-.5-.15-.55.2-.2.24.24.35.52.24.63-.1.11-.3-.09-.44-.43zm-4.92-.51c.37-.52.74-.87.82-.79.1.09-.21.5-.66.94l-.83.78zm2.32-.33c.07-.2.28-.38.46-.38.19 0 .4.17.47.38.07.2-.14.38-.47.38-.32 0-.53-.17-.46-.38zm-91.08-.77c0-.9 1.11-3.16 1.63-3.33.4-.14 1.96 3.39 1.69 3.82-.1.17-.9.3-1.75.3-1.4 0-1.57-.08-1.57-.8zm89.1-.86c-.2-.5-.15-.55.2-.2.24.24.34.52.24.63-.11.11-.31-.09-.44-.43zm2.27-.46c0-.2.25-.35.55-.35.3 0 .45.16.33.35-.12.2-.37.35-.55.35-.18 0-.33-.16-.33-.35zM6.94 87.5c-.13-.2.17-.35.7-.35.53 0 .83.15.7.35-.11.2-.43.35-.7.35-.27 0-.58-.16-.7-.35zM72.09 59.9c-.23-.23-.42-1.31-.42-2.4 0-2.32.38-2.82 2.16-2.82 1.56 0 2.43.74 2.43 2.09 0 .93-.92 2.14-1.62 2.14-.18 0-.53.32-.77.7-.5.8-1.16.91-1.78.3zM52.8 22.67c.59-1.46.6-3.12.04-3.59-.72-.6-.71-1.12.05-2.47.72-1.27 1.46-1.58 2.92-1.26.88.2 1.05.4 1.05 1.3 0 .58-.31 1.46-.7 1.95-.39.5-.7 1.36-.7 1.92 0 1.46-.96 2.76-2.03 2.76-.7 0-.82-.12-.63-.61z" fill="#737373"/>
</svg>
