<?xml version="1.0" encoding="UTF-8" standalone="no"?>
<svg xmlns="http://www.w3.org/2000/svg" width="381.99" height="948.89" viewBox="0 0 101.07 251.06">
  <path d="M3.09 128.42V5.8h95.25v245.27H3.09z" fill="#fdfbfc"/>
  <path d="M3.09 221.03c34.6-40.78 95.25-193.48 95.25 30.03H3.09zm2.25 22.82c7.19-14.33 11.4 10.86 0 0zm.18-17.19c4.18-12.96 10.77 8.56 0 0zm-2.43-40.42c-4.16-14.11 2.24-31.96 19.35-25.93h75.9v51.86H3.09zm22.75-11.25c-1.11-15.31-21.53-12.53-13.92 2.62 2.44 8.04 11.85 2.55 13.92-2.62zm-9.21 3.78c-3.93-7.3 5.17-9 0 0zm-7.67-1.18c4.93-7.41 5.85 7.26 0 0zm-.25-1.85c4.45-6.09 5.09 6.29 0 0zm-.25-2.11c5.95-12.98 9.97 10.93 0 0zm.1-3.18c4.44-5.35 6.3 4.57 0 0zm0-1.85c4.34-5.75 5.86 5.66 0 0zm17.28-1.94c-.11-6.23-1.22 3.49 0 0zM7.17 156.8c-2.98-4.84 4.94.82 0 0zm3.72.07c-1.22-2.95 2.36 1.23 0 0zm1.88-.16c3.48-7.73 5.07 6.6 0 0zm-1.87-1.41c1.84-1.58-.14 3 0 0zm8.69-3.33c-8.81-6.57 15.2 1.42 0 0zm16-.66c-5.15-5.34 1.27-3.92 1.3.26zm-28.4.36c-1.7-10.3 7.82 4.79 0 0zm25.7-.27c-4.25-4.33 5.15-.53 0 0zm5.51-.1c-1.09-5.68 4.03 3.15 0 0zm3.05-.12c3-8.2 5.55 6.84 0 0zm6.5.2c5.38-9.64 6.86 8.88 0 0zm-44.53-5.8c-2.9-24.09 28.83-24.19 45.25-20.9 18.33 8.67 43.98-4.22 36.9-26.14-14.51-15.02-38.15-5.98-56.64-7.3-12.47 2.07-36.81.94-18.6-14 19.1-9.8 40.82 3.04 60.7-4.75 22.63-5.07 30.76 22.05 28.63 39.62 7.35 23.54-15.46 40.91-37.63 34.79-19.31-2.5-39.13-.54-58.61-1.32zm17.23-24.8c-4.86-10.83 9.48 4.01 0 0zm12.39.85c-5.15-12 11.68 3.05 0 0zm11.64 0c-1.84-11.69 9.24 5.04 0 0zm-34.18-.59c-10.15 3.75-.6-8.32 0 0zm65.52-9.33c-6.1-4.44 6.32-4.43 0 0zm2.74-.53c-4.37-7.07 8.8-1.63 0 0zm-69.85-.35c4.27-9.77 29.53 2.04 9.58-.08-3.18-.58-6.4-.15-9.58.08zm33.38-.46c.9-2.58.9 2.57 0 0zm.14-1.03c-1.5-2.18 2.46.84 0 0zm-35.3-4.78c15.41-7.27 50.74 1.61 54.52.2-18.18-.02-36.35.3-54.52-.2zm14.74-1.25c-4.3-4.54-4.77 5.3 0 0zm1.8-.09c-.9-2.57-.9 2.58 0 0zM7.34 97.25c7.29-14.71 10.8 10.56 0 0zm1.48-1.82l-.05.48zm-2.24-24.6c-1.43-8.57 8.56 2.58 0 0zm-3.5-7.73a542.87 542.87 0 0 1 82.35-.21c-27.43 1.5-54.9.28-82.34.21zm2.1-12.09c9-11.53 12.65 9.63 0 0zm26.28-11.28c-4.84-10.28 10.18 2.5 0 0zM8.2 38.16c1.98-9.92 9.12 7.6 0 0zm8.12.25c9.64-12.55 14.55 9.46 0 0zm20.38.19c-3.8-9.8 8.05 3.32 0 0zm4.33-.12c.54-7.7 5.08 4.6 0 0zm5.53-.03c7.16-14.01 12 9.4 0 0zm15.14.27c-9.05-.97 9.9-2.11 0 0zm5.5-.26c7.98-14.49 12.66 11.08 0 0zM47.53 22.6c-10.62-10 23.64-.67 3.05-.43zm25.93 0c-17.49 3.79 7.15-12.5 0 0zM5.45 21.24c7.86-13.62 17.1 10.15 0 0zm16.7-.28c7.79-10.68 13.32 7.08 0 0zm-2.3 52.95c-6.4-6.48 15.01 2.33 0 0zM7.17 73.2c-2.98-4.84 4.94.82 0 0zm3.72.07c-1.22-2.95 2.36 1.23 0 0zm.01-1.57c1.84-1.57-.14 3 0 0zM25 67.7c-5.15-5.35 1.27-3.92 1.3.26zm-17.82.36c-1.69-10.3 7.83 4.79 0 0zm4.81-.22c6.47-13.49 12.23 11.19 0 0zm30.99.24c-8.88 8.7-7.1-11.29 0 0zM22.3 67.8c-4.26-4.33 5.15-.53 0 0zm5.51-.1c-1.1-5.67 4.03 3.15 0 0zm3.05-.12c-3.23-6.8 5.9 2.62 0 0zm44.25-8.77c-16.68-5.54 20.97-3.67 0 0zm-32.56-1.2c3.01-12.12 24.88 3.68 7.48 1.18l-3.76-.5zm52.25.14c-11.65.96 4.15-9.81 0 0zM3.4 50.1C3.64 32.87-5.06-1.06 22.66.68 47.87.15 73.1.71 98.34.5c.17 24.57-31.29 20.57-47.51 16.94-11.93-4.22-27.38 12.26-7.31 12.72 16.5.36 54.46-11.59 53.38 14.29-9.35 10.69-27.34 5.2-25.21-8.23-19.64-3.94-29.13 24.04-49.11 15.17C16.34 50 9.77 48.3 3.42 50.1zm26.53-7.01c-6.09-5.89 2.25 6.66 0 0zm16.54.94c-.09-11.45-7.4 4.35 0 0zm-34.55-.68c3.76 1.35-5.5-.81 0 0zm44.86 3.9c-14.44-14.35 13.25-2.58 0 0zM84.37 28.5c-3.16-16.44 20.87 6.86 1.32.27l-1-.2zm-56.03-2.93c11.6-8.6 17.1 4.32 0 0zm7-1.27c-1.15-1.63-.16 1.82 0 0zm8.2 0c-1.15-1.63-.16 1.82 0 0z" fill="#eafafc"/>
  <path d="M3.09 226.85c-5.69-14.83 5.06-29.75 20.87-24.2h74.38v48.4H3.09zm7.6-27.54c-13.03 2.27 2.61-8.52 0 0zm-.2 27.33c-17.78 4.01 8.87-9.33 0 0zm-2.64-3.36c-.49-1.49-.49 1.49 0 0zm5.82 2.77c.3-4.8 2.24 3.84 0 0zm.17-1.89c-3.38-3.53 4.53.82 0 0zm-5.4-21.18c2.98-8.71 4.68 6.72 0 0zm14.46-5.42c7.27-9.65 11.45 6.98 0 0zm35.22-.19c8.79-10.04 11.84 7.15 0 0zm1.45-1.08c-.7-1.06 0 1.52 0 0zm23.15 1.08c2.84-7.03 5.3 5.23 0 0zm1.46-1.08c-.71-1.06-.01 1.52 0 0zm-73.24 1.03c1.32-8.34 4.83 6.83 0 0zm27.75-.12c3.67-4.8 6.34 4.09 0 0zm10.28-.04c4.34-7.84 7.16 6.48 0 0zm1.48-.87c-.68-1.85-.68 1.85 0 0zm23.68 1.1c3.66-7.42 5.14 6.22 0 0zm4.1-1.1c-.49-1.49-.49 1.49 0 0zm-59.53.3c-5.37-3.77 4.6-1.1 0 0zm41.44-4.22c-22.52 8.82.44-10.02 0 0zm15.44-.55c4.2-9.42 7.7 8.15 0 0zm1.46-1.09c-.71-1.05-.01 1.52 0 0zm-69.36.93c4.4-9.35 8.03 7.86 0 0zm1.66-1.06c3.73-2.07-2.64-.63 0 0zm8.63 1.28c-4.5-5.9 5.95 1.73 0 0zm6.3-.07c-10.36 5.94 2.95-5.3 0 0zm3.04-.17c6.63-5.1 9.7 3.88 0 0zm1.3-.9c-.8-1.54-.34 1.8 0 0zm15.64.9c.94-6.31 4.25 4.49 0 0zm1.3-.9c-.81-1.54-.34 1.8 0 0zm20.17 1.16c3.44-7.32 7.83 5 0 0zm18.21-.26c.9-6.54 4 4.83 0 0zm-37.45-8.05c8.03-2.28 41.24.65 17.86.63-5.96-.05-11.91-.37-17.86-.63zm-39.3-3.24c-15.15-19.63 34.42-12.01 13.03-.08-4.22 2.03-8.67-.45-13.03.08zm18.86-5.42c-1.4-21.9-25.51 7.8-7.07 6.13 2.78-1.5 4.88-3.92 7.07-6.13zm-9.3 3.71c-1.97-5.4 3.34-7.65 0 0zm-7.92-1.31c4.4-4.45 3.87 5.36 0 0zm-.06-1.96c2.49-4.8 3.8 3.28 0 0zm-.12-1.94c4.66-4.42 4.13 5.5 0 0zm.18-1.4c3.22-3.9 2.66 4.7 0 0zm-.06-1.95c2.49-4.8 3.8 3.28 0 0zm-.07-2.03c4.76-4.32 4.69 5.73 0 0zm27.86 10.78c-8.74.45 7.07-3.13 0 0zm-8.53-.64c-2.44-7.11 6.1 3.21 0 0zm7.82-4.56c-9.07-3.78 11.16.65 0 0zm-7.98-.59c-2.76-7.71 6.56 3.14 0 0zm63.76-.22c-18.27 1.3 5.77-9.96 0 0zm-.96-1.4c6.77 7.07 2.71-3.29 0 0zm-44.1-.16c5.1-9.22 6.43 8.9 0 0zm9.48.1c.34-5.04 3.08 3.51 0 0zm4.4-.15c10.82-10.1 16.03 7.86 0 0zm21.23-.05c.48-1.5.48 1.48 0 0zm0-1.33c.48-1.49.48 1.49 0 0zm-45.27-1.75c9.84-10.7 16.78 5.27 0 0zm-1.71-1.45c-1.33-1.12.4 1.7 0 0zm-6.92 1.17c-.7-10.53 7.23 5.74 0 0zm-12.91-10.93c-6.8-4.7 6.75 1.74 0 0zm-7.39-.24c-3.04-5.2 5.19 1.24 0 0zm12.19-4.93c-3.17-5.9 12.75 3.34 0 0zm16.2-.52c-4.28-5.06 1-4.02 1.02.14zm-28.49.34c-2.33-10.02 7.93 4.5 0 0zm34.5-.27c2.88-6.44 4.15 5.26 0 0zm8.44.13c3.03-6.6 3.76 6.02 0 0zm-17.14-.23c-4.3-4.35 5.4.03 0 0zm5.54-.04c-2.46-5.12 4.56 1.9 0 0zM3.1 141.2c20.25-10.11 43.15-.84 64.55-4.17h30.7c-15.88 17.85-41 4-61.02 8.34H3.1zm13.4-9.38c-1.59-5.36 4.01 1.6 0 0zm19.07 1.88c-14.03 3.46 3-9.47 0 0zm-3.8-2.35c5.47-2.67-3.4-.9 0 0zm8.9 2.13c-4.75-10.26 9.44 2.98 0 0zm.92-2c6.17 1.93-2.7-3.1 0 0zm-35.54.97c8.35-12.87 11.02 10.1 0 0zm15.13-.04c4.57-10.53 8.07 8.42 0 0zm16.43.1c-.79-2.5 1.94 1.52 0 0zm8.73-.91c2.88-5.4 2.27 5.38 0 0zm6.4 1.02c-4.58-3.94 5.64-1.33 0 0zm33.17-24.27c-1.2-20.75-26.73-21.3-42.14-18.43-10.8 5.44-48.24 2.65-29.06-13.19 19-.73 38.23 2.73 57.42-1.45 18.42-3.44 30.58 9.52 26.3 27.19 6.99 12.15-8.69 35.8-13.2 13.45a18.9 18.9 0 0 1 .68-7.57zM20.83 120.6c-6.3-9.19 7.9 3.9 0 0zm12.31.65c-3.14-10.7 8.42 4.14 0 0zm11.6.07c.26-10.84 7.2 6.36 0 0zm-34.03-.57c-4.48 3.54-1-4.65 0 0zm65.31-9.05c-5.77-5.56 7.48-3.31 0 0zm2.74-.53c-4.29-6.85 8.55-1.01 0 0zm-71.18-.57c5.06-9.59 6.36 9 0 0zm9.24-.35c1.08-6.06 3.69 4.6 0 0zm4.48-.04c11.12-8.98 17.26 6.5 0 0zm-14.17-5.66c21.79-1.83 43.69-1.25 65.5-.2-21.83.8-43.67.54-65.5.2zm7.35-2.04c4.82-6.78 7.84 5.52 0 0zm-.55-1.08c-.94-1.5 0 2.03 0 0zm1.86 0c-.53-1.85-.53 1.84 0 0zm7.4 0c-.52-1.85-.52 1.84 0 0zm1.86 0c-.53-1.85-.53 1.84 0 0zm-17.44.45c-7.64-4.49 3.58-2.05 0 0zm-.2-4.94c7.79-13.09 10.53 11.84 0 0zm1.56-1c4.08-.5-2.32-2.13 0 0zM6.7 70.7c-1.34-7.8 7.8 2.48 0 0zM5.3 50.9c6.52-9.58 12.38 7.71 0 0zm7.31-1.07c-1.1-1 .46 1.62 0 0zm18.9-10.61c-3.68-9.16 8.22 2.8 0 0zm.98-2.27c-1.3-1.7-.03 2.03 0 0zM6.04 38.14c7.28-13.66 8.94 12.34 0 0zm3.4-1.01c-1.1-1 .46 1.62 0 0zm6.67.73c7.61-10.54 10.45 10.64 0 0zm1.57-.91c-1.32-1.7-.04 2.03 0 0zm1.8.18c-1.09-1 .47 1.62 0 0zm17.26 1.15c-1.37-7.48 4.41 4.22 0 0zm4.28-.08c1.36-7.5 4.41 5.04 0 0zm5.57.1c7.6-12 11.55 9.19 0 0zm14.22.04c-7.09-5.95 7.89 2.76 0 0zm1.54-1.21c-1.1-1 .46 1.62 0 0zm4.78 1.1c8.5-13.33 11.08 10.32 0 0zm-19.4-15.67c4.21-13.2 15.2 6.11 0 0zm4.17-3.1c-1.28-1.84.17 2.66 0 0zm21.68 2.97c-14.99 6.57-1.66-11.74 0 0zm-5.4-3.54c-.42-5.06-1.67 4.01 0 0zM5.85 21.3c8.77-13.94 15.7 8.33 0 0zm16.7-.2c-3.68-4.46 4.69-1.04 0 0zm5.24.3c1.9-12.26 10 7.6 0 0zm10.67-.03c3.81-10.92 7.57 8.12 0 0zm3.64-1.92c-1.28-1.84.17 2.66 0 0zm-2.33-.75l-.05.47zM20.04 68.39c.28-6.88 10.51 5.11 0 0zm-12.57-.66c-3.04-5.2 5.19 1.24 0 0zm17.8-5.45c-4.27-5.06 1-4.02 1.03.14zm-17.9.34c-2.33-10.02 7.93 4.5 0 0zm4.55-.31c8.21-13.52 10.16 11.04 0 0zm1.34-.94c.62-1.6-1.15.89 0 0zm18.2 1.12c-2.95-2.68 4.6-.6 0 0zm4.57-.01c4.01-7.04 4.42 6.5 0 0zm-13.44-.23c-4.3-4.35 5.4.03 0 0zm5.54-.04c-1.42-4.68 3.28 2.36 0 0zm46.75-9.45c-8.17-7.78 18.78 2.13 0 0zm-32.26-.77c11.97-10.73 17.4 8.19 0 0zm1.74-1.48c-.54-2.22-.54 2.21 0 0zm40.93 1.68c-1.56-2.2 2.5.88 0 0zm9.56-.5c-5.13 4.05-.76-5.57 0 0zM3.42 44.78C-8.62 24.7 13.33-1.39 35.3 4.2 53.97 9.57 78.55.9 93.67 9.86c-15.1 12.74-36.15-4.12-53.32 2.6-16.46 15.53 17.6 15.2 26.98 11.06 7.32-7.52 35.5 7.8 14.62 6.86C59.6 24.66 43.6 50.62 21.46 44.77c-5.98-.68-12.1-1.28-18.04 0zm26.68-4.75c6.05-12.48-11.24 4.01 0 0zm-3.12-1.06c-3.24-5.1 4.8.94 0 0zm19.9-.36c-1.89-13.73-7.84 9.12 0 0zm-34.89 0c5.14 4.69 2.7-3.48 0 0zm34.22-2.38c-.02-1.55-.68 1.06 0 0zM9.31 19.28c-1.34-2.05-.53 5.62 0 0zm5.12-.7c-2.37-1.5 1.03 2.61 0 0zm67.33 25.97c8.9-5.67 11.35 6.11 0 0zm-24.58-2.62c-14.76-11.3 12.06-4.71 0 0zm7.4-1.31c8.68-11.21 14.32 4.9 0 0zm21.64-1.3c-3.79-9.18 8.18 2.93 0 0zm6.11.37c-7.31-8.55 9.25.42 0 0zm-7.9-16.77c-1.9-15.63 19.48 8.13 1.23.33l-.98-.27zm-52.63-3.1c1.6-4.42 2.09 4 0 0zm7.14.26c-2.34-6.11 7.05 4.7 0 0zm8.2 0c-5.35 3.19 1.03-5.02 0 0zm-18.6-1.4c2.27-6 1.2 4.96 0 0zm1.67-.46c1.5-2.96-2.48 1.14 0 0zM4.83 4.7c.52-13.97 10.47 8.58 0 0zM9.17 1.3c.39-1.85-1.22 1.14 0 0zm62.18 6.25c-6.57-9.08 9.18 1.22 0 0zm14.97-.07c-4.87-11.5 10.86 2.8 0 0zM76.17 6.44c-1.67-3.9 4.78 3.12 0 0zm16.14 0c-1.67-3.9 4.78 3.12 0 0z" fill="#b6e4f9"/>
  <path d="M43.74 243.45c3.9-10.77 8.5 7.98 0 0zm13.29.14c6.3-10.48 22.25 4.68 4.8.7-1.61-.18-3.2-.43-4.8-.7zm2.04-1.15c-.18-4.24-2.45 3.47 0 0zm2.42.09c-1.3-4.49-2.72 4.01 0 0zm1.66.22c1.78-2.25-2.46.42 0 0zm3.96-.27c3.2-2.79-3.65-.42 0 0zm5.17-.4c-4.1-8.94-1.04 4.21 0 0zm2.24.51c-.7-1.79-.7 1.8 0 0zm1.59 0c-.64-1.08-.11 1.47 0 0zm1.85-.1c3.2-2.8-3.65-.43 0 0zm-4.5-.96c-.5-1.44-.5 1.45 0 0zm-51.05.7c4.83-6.72 8.03 5.39 0 0zm10.43.35c-3.1-2.37 4.9-.15 0 0zm5.28-.1c0-8.98 6.12 5.25 0 0zm-2.3-.85c0-2.23 1.47 1.9 0 0zm18.51 0c.01-2.23 1.48 1.9 0 0zm5.43-5.7c-11.58.82-14.37-8.56-1.21-5.59 8.34-.09 12.69 4.03 1.2 5.59zm-14.32-3.4c1.57-4.48-4.98 3.85 0 0zm3.26.11c4.06-2.7-4.47-.21 0 0zm9-.24c3.52-3.22-3.91.46 0 0zm4.4.13c3.56-2.63-4.03.03 0 0zm6.05-.16c-4.17-2.39.56 6.05 0 0zm-38.96 3.38c.64-13.33 12.2 6.64 0 0zm4.75-3.63c2.05-3.57-2.88 1.21 0 0zm19.78-3.95c-.45-3.21 2.28 2.32 0 0zM5.48 243.66c7.48-12.84 10.8 10 0 0zm5.01-17.02c-13.46 3.68 6.81-9.24 0 0zm-2.64-3.36c-.5-1.45-.5 1.45 0 0zm5.82 2.77c.46-4.64 2.17 3.79 0 0zm.17-1.89c-3.17-3.56 4.44.84 0 0zm-5.4-21.18c3.01-8.67 5.11 7.07 0 0zm14.46-5.42c7.5-9.59 12.8 6.4 0 0zm35.22-.19c8.76-9.15 12.03 7.07 0 0zm1.45-1.08c-.64-1.08-.1 1.47 0 0zm23.15 1.08c2.48-7.67 6.97 5.49 0 0zm1.46-1.08c-.65-1.08-.11 1.47 0 0zm-73.24 1.03c.66-8.1 5.87 6.52 0 0zm27.75-.12c3.33-4.34 6.45 3.12 0 0zm10.28-.04c4-7.9 8.4 6.24 0 0zm1.48-.87c-.7-1.8-.7 1.8 0 0zm23.68 1.1c3.3-7.41 6.01 6.03 0 0zm4.1-1.1c-.5-1.45-.5 1.45 0 0zm-59.53.3c-5-3.85 4.55-.94 0 0zm41.44-4.22c-11.05 5.22-1.46-8.06.33-.41zm15.44-.55c4.56-8.83 7.36 7.36 0 0zm1.46-1.09c-.65-1.08-.11 1.47 0 0zm-69.36.93c4.77-8.76 7.72 7.1 0 0zm1.66-1.06c3.25-2.45-2.7-.16 0 0zm8.63 1.28c-4.07-5.32 5.39 1.2 0 0zm6.3-.07c-9.94 4.66 3.47-5.12 0 0zm3.04-.17c5.87-4.64 11.09 2.75 0 0zm1.3-.9c-.78-1.5-.4 1.74 0 0zm15.64.9c.96-5.69 3.94 3.9 0 0zm1.3-.9c-.78-1.5-.4 1.74 0 0zm20.17 1.16c3.85-6.66 7.32 4.35 0 0zm18.21-.26c.95-6.64 4.33 4.82 0 0zm-37.45-8.05c8.56-2.26 43.97.63 19.04.64-6.35-.04-12.7-.34-19.04-.64zm-39.3-3.24c-15.3-20.7 35.62-12.2 13.14-.13-4.24 2.12-8.75-.4-13.14.13zm18.86-5.42c-7.16-24.85-23.48 19.68-.61 3.06l.4-.92zm-9.3 3.71c-3.05-5.8 3.13-7.98 0 0zm-7.92-1.31c4.42-4.48 4.6 5.48 0 0zm-.06-1.96c2.84-4.61 3.68 3.03 0 0zm-.12-1.94c4.66-4.46 4.93 5.65 0 0zm.18-1.4c3.24-4.12 3.47 4.9 0 0zm-.06-1.95c2.84-4.61 3.68 3.03 0 0zm-.07-2.03c4.81-3.86 4.92 4.85 0 0zm27.86 10.78c-9.24-.17 7.4-2.75 0 0zm-8.53-.64c-2.54-7.3 6.61 3.13 0 0zm7.82-4.56c-9.79-3.14 11.75-.13 0 0zm-7.98-.59c-2.77-8.05 7.13 3.27 0 0zm63.76-.22c-14.95.73 4.4-9.68 1-1.02l-.71.73zm-.96-1.4c7.75 5.84 1.5-3.2 0 0zm-44.1-.16c5.4-8.65 6.16 8.21 0 0zm9.48.1c.41-5.25 3.38 3.66 0 0zm4.4-.15c11.66-9.4 19.4 6.36 0 0zm21.23-.05c.5-1.45.5 1.44 0 0zm0-1.33c.5-1.45.5 1.45 0 0zm-45.27-1.75c8.03-8.3 18.9 1.12 3.7.24zm-1.71-1.45c-1.32-1.07.37 1.67 0 0zm-6.92 1.17c-.87-10.42 7.7 5.52 0 0zm-12.91-10.93c-6.1-4.4 5.95 1.3 0 0zm-7.39-.24c-2.72-5.07 4.96 1.2 0 0zm12.19-4.93c-4.26-4.8 12.06 1.37 0 0zm16.2-.52c-5.38-9.83 4.35 1.88 0 0zm-28.49.34c-1.91-9.05 7.27 4.03 0 0zm34.5-.27c2.95-6.46 4.6 5.45 0 0zm8.44.13c2.85-6.7 4.36 6.08 0 0zm-17.14-.23c-3.97-4.32 5.18.07 0 0zm5.54-.04c-2.54-5.12 4.98 1.8 0 0zm-22.22-19.3c-1.05-6.74 4.25 2.6 0 0zm19.07 1.88c-14.07 2.61 3.7-9.2 0 0zm-3.8-2.35c4.78-3.01-3.36-.52 0 0zm8.9 2.13c-4.45-11.15 9.54 3.5 0 0zm.92-2c5.88 1.34-2.81-2.84 0 0zm-35.54.97c8.46-12.57 11.24 9.86 0 0zm15.13-.04c4.27-10.6 9.26 8.28 0 0zm16.43.1c-.68-2.47 1.9 1.51 0 0zm8.73-.91c3.31-5.94 2.7 5.9 0 0zm6.4 1.02c-5.12-4.6 6.18-1.67 0 0zm-19.15-11.5c-4.07-6.49 6.01.47 0 0zm1.52-1.15c-.95-2.52-.95 2.52 0 0zm9.93 1.2c-.2-8.85 6.3 4.78 0 0zm-24.2-.96c-1.4-8.43 4.08 5.49 0 0zm-10.15-.11c-3.7 4.89-3.11-3.62 0 0zm65.34-8.38c-6.1-4.44 6.32-4.43 0 0zm2.74-.53c-4.37-7.07 8.8-1.63 0 0zm-71.18-.57c5.37-9.05 6.08 8.39 0 0zm9.24-.35c1.2-5.57 3.57 4.2 0 0zm4.48-.04c10.86-8.47 18.5 5.66 0 0zm71.57-1.38c-3.53-3.07 3.24.02 0 0zm1.76-.1c-3.55-1.45 2.12-1.15 0 0zm-3.8-.69c.77-1.26-.07 2 0 0zm-.3-2.05c-2.07-7.78 7.15 2.74 0 0zm-83.4-1.44c21.79-1.83 43.69-1.25 65.5-.2-21.83.8-43.67.54-65.5.2zm7.35-2.04c5.49-7.12 9.07 5.53 0 0zm-.55-1.08c-.88-1.52-.1 1.97 0 0zm1.86 0c-.54-1.81-.54 1.8 0 0zm7.4 0c-.53-1.81-.53 1.8 0 0zm1.86 0c-.54-1.81-.54 1.8 0 0zm-17.44.45c-6.65-5.2 3.66-1.24 0 0zm81.73-.92c-5.8-13.17 14.6 4.35 0 0zM7.42 96.95c7.78-11.53 8.93 9.86 0 0zm1.55-1c3.85-.99-2.4-1.8 0 0zM77.7 85.33c-6.23-4.3 5.55-.23 0 0zm2.92-.15c-3.96-5.82 6.24 1.3 0 0zm3.22-.07c-3.58-4.32 5.47.1 0 0zm4.97.13c5.22-8.48 7.71 7.44 0 0zm-13.85-.25c-4.1-3.17 4.14-1.42 0 0zm-4.32-1.04c-1.48-5.94 5.16 2.44 0 0zm-67.55-.9c16.35-.82 52.23-.95 56.18.1-18.71.99-37.47.52-56.18-.1zM6.7 70.7c-.86-7.87 7.52 2.26 0 0zM5.3 50.9c8.35-9.42 11.95 7.15 0 0zm7.31-1.07c-1.05-1.03.37 1.6 0 0zm18.9-10.61c-3.41-8.73 7.7 2.61 0 0zm.98-2.27c-1.34-1.6-.03 1.99 0 0zM6.04 38.14c6.27-12.47 9.4 10.99 0 0zm3.4-1.01c-1.06-1.03.37 1.6 0 0zm6.67.73c8.01-9.67 10.22 9.49 0 0zm1.57-.91c-1.34-1.6-.03 1.99 0 0zm1.8.18c-1.04-1.03.38 1.6 0 0zm17.26 1.15c-1.13-7.58 4.27 4.34 0 0zm4.28-.08c1.68-7.64 4.8 5.44 0 0zm5.57.1c8.19-11.1 11.1 8.12 0 0zm14.22.04c-7.24-5.8 8.55 2.72 0 0zm1.54-1.21c-1.05-1.03.37 1.6 0 0zm4.78 1.1c8.48-13.03 11.5 10.35 0 0zM25.27 72.85c-5.37-9.83 4.35 1.89 0 0zm-17.9.35c-1.91-9.06 7.27 4.02 0 0zm4.55-.32c8.13-13.32 10.85 11.13 0 0zm1.34-.94c.51-1.57-1.11.93 0 0zm18.2 1.12c-2.92-3.2 4.5-.48 0 0zm4.57-.01c4.13-7.24 5.03 6.46 0 0zm-13.44-.23c-3.98-4.32 5.18.07 0 0zm5.54-.04c-1.34-4.64 3.5 2.36 0 0zm46.92-9.58c-12.3-2.3 11.95-2.38 0 0zm-6.95-1.75l-.48.01zm-25.32.97c10.36-8.62 15.31 5.7 1.28.13l-1.02-.1zm1.58-1.2c2.11-3.35-2 .38 0 0zm6.95.21h-.78zm33.97 1.13c-.65-2.43 1.64 1.33 0 0zm9.54-.96c-3.7 4.9-3.11-3.61 0 0zm-9.37-.74c-1.33-1.96 2.24.73 0 0zm-82.36-6c7.66-3.8 31.63-4.17 31.09.43-10.37.54-20.73-.42-31.1-.43zm79.1 0c2.43-1.55 9.13 1.15 2.83.57zm-25.01-2.36c-14.5-13.69 13.3-3.08 0 0zm7.4-1.3c8.64-11.24 15.4 5.16 0 0zm22-1.75c-5.36-7.4 5.68 2.75 0 0zm6.2.28c-3.75-4.16 4.41.89 0 0zm-40.83-8.67c6.5-9.59 26.7 3.97 7.45.31-2.47-.3-4.97-.3-7.45-.3zm17.94-4.3c10.38-8.9 14.72 7.14 0 0zm-54.99-1c-23.6-3.62 19.7-20.28 1.46.1zM8.6 30.82c6.35 1.8-.22-4.59 0 0zm6.16-2.02c-4.29-2.44 1.96 4.35 0 0zm69.95 4.44c-.2-15.56 17.62 9 .89.16zm7.81-2.29c.41-8.86-7.23 4.29 0 0zm-2.73-.98c-1.93-3.26 4.6 1.92 0 0zm-57.98.44c1.7-4.6 2.38 4.2 0 0zm7.14.26c-2.97-5.92 8.11 4.32 0 0zm8.2 0c-4.64 2.68.76-4.42 0 0zm-18.6-1.39c2.55-5.98 1.01 5.27 0 0zm1.67-.46c1.21-2.95-2.37 1.23 0 0zm11.77-5.16c-7.66-13.12 12.67-1.01 0 0zm34.99.21c-12.56-11.32 25.23-3.32 3.83.94l-3.83-.94zm13.86-4.79c1.93-7.73 4.84 5.53 0 0zm-86-5.45c5.58-18.26 13.54 11.8 0 0zm3.55-.07c12.8 3.6-2.7-7.36 0 0zm-2.2-.26c-1.56-4.5 3.5 1.95 0 0zm3.8-.93c-1.9-6.49 4.95 3.23 0 0zm61.27.3c-3.15-7.01 6.18 2.57 0 0zm1.37-.85c-.98-3.33-.37 3.2 0 0zm13.9 1c-2.83-9.02 7.9 2.12 0 0zm-10.14-1.06c.18-2.86 1.62 2.45 0 0zm16.14 0c-.36-4.44 2.6 3.66 0 0z" fill="#cfd1d1"/>
  <path d="M43.9 243.32c5.78-12.5 10.25 8.3 0 0zm13.13.27c6.3-10.48 22.25 4.68 4.8.7-1.61-.18-3.2-.43-4.8-.7zm2.04-1.15c-.18-4.24-2.45 3.47 0 0zm2.42.09c-1.3-4.49-2.72 4.01 0 0zm1.66.22c1.78-2.25-2.46.42 0 0zm3.96-.27c3.2-2.79-3.65-.42 0 0zm5.17-.4c-4.1-8.94-1.04 4.21 0 0zm2.24.51c-.7-1.79-.7 1.8 0 0zm1.59 0c-.64-1.08-.11 1.47 0 0zm1.85-.1c3.2-2.8-3.65-.43 0 0zm-4.5-.96c-.5-1.44-.5 1.45 0 0zm-51.05.7c-.96-8.8 7.93 3.82 0 0zm2.55-1.27l-.05.47zm1.7 1.65c.54-7.84 6.95 4.12 0 0zm6.18-.03c-3.48-3.1 4.67-.01 0 0zm.59-1.62l-.05.47zm4.69 1.53c-.53-8.2 6 4.79 0 0zm-2.3-.86c0-2.23 1.47 1.9 0 0zm18.51 0c.01-2.23 1.48 1.9 0 0zm5.43-5.7c-15.13-.2-10.67-9.1 1.75-5.35 9.8.81 3.9 4.84-1.75 5.35zm-14.32-3.4c1.57-4.48-4.98 3.85 0 0zm3.26.11c4.06-2.7-4.47-.21 0 0zm9.15-.23c2.04-3.38-3.4 1.4 0 0zm4.6-.22c.25-4.26-2.66 3.3 0 0zm5.72.12c-2.1-2.77-.95 3.5 0 0zm-38.78 3.45c.22-13.24 12.24 6.04 0 0zm4.55-3.64c2.05-3.57-2.88 1.21 0 0zm19.84-3.78c-3.08-3.46 3.71.8 0 0zm-42.8 11.96c-3.75 4.28-2.67-4.03 0 0zm-5.22 2.89c2.52-4.28 2.2 4.6 0 0zm5.58.14c-1.16-4.77 6.4 5.86 0 0zm2.22-.17c-2.08.1.8-1.07 0 0zm-3.52-1.1c.2-2.16.2 2.17 0 0zm3.25-.17c-2.9-2.14 2.18-.46 0 0zm-2.9-15.72c-4.35-7.42 7.07 1.56 0 0zm1.56-.78c-1.01-1.83-.58 2.11 0 0zm-6.32.66c-3.68-9.92 9.45 2.43 0 0zm2.35-2.77c-1.13-2.98-.97 3.14 0 0zm5.95 2.8c1.02-1.95.37 2.5 0 0zm.18-2.19c-.94-2.38 2.59 1.35 0 0zm-6.67-43.76c3.45-.6 11.9.45 3.51.22zm20.89-3.02c1.07-4.7 1.86 4.29 0 0zm7.24.78c-3.59-.76 2.33-1.81 0 0zm1.65-.52c1-3.1 1.4 2.85 0 0zm-26.66-.59c2.53 0 3.14 0 0 0zm21.9-.33c.12-1.49.62 1.09 0 0zm3.56-3.45c-7.09-2.61 11.8.51 0 0zm-2.88-1.47c-2.33-.49 1.8 2.08 0 0zm-5.01 1.24c-1.38-4.93 3.7 2.45 0 0zm13.02-.56c-4.55-1.63 2.5-1.37 0 0zm46.67.36c-5.2-3.97 5.4-2.49 0 0zm3.57-.1c-5.09-4.51 5.48-1.72 0 0zm-42.2-1.32c-1.74-4.63 8.66 4.81 0 0zm1-.66c-.89-1.52-.12 1.97 0 0zm3.52.65c-2.76-3.33 4.24.94 0 0zm2.7.07c1.2-4.73 2.69 4.07 0 0zm4.53.03c.12-1.79 1.34 2.02 0 0zm1.5-.1c2.38-3.18 10.5.62 3.24.51zm.75-.65c-.56-1.72-.56 1.73 0 0zm5.25 0c-.88-1.52-.11 1.97 0 0zm10.5.72c-6.23-1.98 4.94-1.19 0 0zm-18.18-.96l.66-.4zm-38.16-.3c-8.76-1.87 7.98-.94 0 0zm-11.9-1.9c3.08 0 5.22 0 0 0zm17.52-.55c-2.1-2.12 2.6.05 0 0zm1.86-.51c2.85.4-3.58 3.3 0 0zm16.71-1.85c7.96-3.37 9.23 3.91 0 0zM7.4 165c8.9-.64 4.76.09 0 0zm.07-13.67c-.71-6.8 5.16 3.64 0 0zm12.56-.15c8.87-2.56 6.8 1.83 0 0zm-7.76-.31c-2.52.48.86-1.47 0 0zm1.68-.14c.96-4.56 3.01 4.17 0 0zm2.73-17.8c-.91-6.1 6.08 2.15 0 0zm19.17-.58c-6.02 5.2-2.69-4.43 0 0zm-3.81-.95c2.23-5.93-4.03 3.11 0 0zm8.43 1.14c-4.7-3.77 4.71-4.65 0 0zm-34.13-.19c2.51-6.57 6.04 4.86 0 0zm6.12-.2c1.75-5.59 4.72 4.17 0 0zm9.08.18c2.7-6.95 4.63 5.6 0 0zm5.51-.04c-4.36-4.56 5.59.35 0 0zm16.02-.14c-2.3-5.1 4.5 2.09 0 0zm3.68-.28c-4.77-7.28 4.82 2.52 0 0zm2.01.43c-2.96-5.2 4.9 1.59 0 0zm4.2-1.3c-3.43-1.2 3.05-1.36 0 0zm-19.37-9.9c-4.07-6.48 6.01.48 0 0zm1.52-1.14c-.95-2.52-.95 2.52 0 0zm9.93 1.2c-.2-8.85 6.3 4.78 0 0zm-24.2-.96c-1.4-8.43 4.08 5.49 0 0zm-10.15-.11c-3.7 4.89-3.11-3.62 0 0zm65.43-10.13c-7.02-6.08 3.54-2.76 0 0zm2.91 1c-3-4.4 5.8-.65 0 0zm-68.38-.63c-1.16-4 4.07 2.21 0 0zm6.9.02c1-4.9 2.78 4.36 0 0zm11.4.05c1.51-5.8 4.39 4.64 0 0zm-21.23-.37c.42-4.6 3.71 3.84 0 0zm6.54-.32c-.48-4.74 2.82 2.81 0 0zm8.78.2c1.56-3.74 2.55 3.53 0 0zm1.22-.27c-.76-2.21-.77 2.2 0 0zm9.92.4c-4.01-1.06 3.31-1.6 0 0zm1.33 0c-.4-3.89 3.38 3.52 0 0zm3.44-.43c2.25-4.44 1.5 7.4 0 0zm-12 0c-.08-4.3 2.68 4.18 0 0zm10.8-.12c1.52-1.16-.76 2.3 0 0zm53.02-3.62c-1.7-6.01 5.4 2.36 0 0zm-83.32-1.4c6.16-3.06 7.92 3.24 0 0zm82.3-3.52c-15.13-16.37 17.45-.6 0 0zm3.45-3.46c5.72-9.47-10.41.76 0 0zm-1.62-.77c-6.28-3.71 4.86-.97 0 0zM7.69 96.7c1.12-5.82 3.33 4.57 0 0zm1.6-.65c4.1-5.69-5.01 2.06 0 0zm3.32.36c2.52-5.52 4.53 4.29 0 0zm3.3-.66c-1.94-.69 1.16 1.85 0 0zm61.79-10.4c-4.64-4.25 4.91-.36 0 0zm2.93-.3c-3.4-4.73 5.23.97 0 0zm3.35.1c-5.35-4.39 6.66-1.47 0 0zm5.3 0c4.52-8.64 7.7 7.26 0 0zM74.97 85c-4.22-4.03 4.88-.5 0 0zm-4.25-.83c-2.74-6.86 6.66 1.97 0 0zM6.8 70.04c-1.8-5.62 5.7 1.03 0 0zM5.57 50.67c-4.02-6.9 6.55 2.02 0 0zm1.45-.86c-2.34-1.43.97 2.56 0 0zM7 48.7c-1.17-1.65-.13 2.16 0 0zm2.73 1.86c3.68-5.93 5.55 5.49 0 0zm3.23-.4c1.3-3.6-3.06 2.06 0 0zm3.65.4c-7.13-4.65 4.84-.36 0 0zm-8.17-.73l-.01.64zM31.56 38.4c-6.73-1.72 1.21-4.48 0 0zm-25.4-.88c-5.07-4.29 5.35.69 0 0zm2.5.43c1.67-1.16 1.42-.99 0 0zm1.11-.48c1.31-3.6-3.05 2.06 0 0zm3.26.67c-.71-4.02 4.17 1.84 0 0zm3.6-.12c-4.31-1.19 3.22-2.3 0 0zm2-.05c7.05-9.67 12.56 7.1 0 0zm1.2-.5c1.3-3.6-3.06 2.06 0 0zm13.4.45c-.08-4.4 3.61 3.1 0 0zm4.96.25c-7.56-1.51 5.79-2.35 0 0zm3.15-.03c-.62-4.2 4.2 2.71 0 0zm2.37-.05c-3.45-3.78 4.48.54 0 0zm3.19.05c-.62-4.2 4.2 2.71 0 0zm2.55.02c-1.2-4.9 6.04 4.92 0 0zm2.34-.29c-4.56-4.71 5.02 1.23 0 0zm1.97.22c-.1-4.82 3.5 3.35 0 0zm7.93-.02c-6.43-2.39 9.39.15 0 0zm1-.6c1.3-3.6-3.06 2.06 0 0zm4.7.48c4.02-4.75 6.5 3.86 0 0zm-55.57-1.2c.4-3.52.29 4.19 0 0zm63.55.4l-.01.63zm1.08-.4c.2-2.17.2 2.16 0 0zm-28.49-15.8c-3.58-3.53 3.5-4.66 0 0zm25.77 1.37c-5.7-7.39 8.92-1.88 0 0zm-67.8-1.2c1.76-8.14 6.2 5.1 0 0zm8.69-.13c-4.1-6.9 6.93 2.25 0 0zm4.14.23c-5.33-2.5 4.73-3.65 0 0zm3.96-.23c-5.37-3.33 4.98-2.74 0 0zm4.8-.27c1.58-9.79 7.8 6.01 0 0zm1.63-.64c-1.02-1.83-.58 2.1 0 0zm5.45 1.08c-5.33-2.37 5.06-3.63 0 0zm4 .06c-5.33-2.5 4.73-3.65 0 0zm2.11-.23c-3.83-7.55 6.87 1.75 0 0zm1.67-1.17c1.13-3.74-2.84 2.3 0 0zM44.52 21c-1.45-4.3 4.32 1.52 0 0zm5.98-.01c-4.38-8.41 8.3 1.9 0 0zm1.66-1.17c.34-5.02-3.02 4.36 0 0zM54.31 21c-1.45-4.3 4.32 1.52 0 0zm6.39.12c-8.07-3.1 6.77-2 0 0zm9.65-.37c-17.66 5.2 7.62-9.5 0 0zm-1.91-1.86c-.68-7.08-2.06 4.8 0 0zM72 20.08c-1.01-1.83-.58 2.1 0 0zm-59.55.7c-5.24-3.15 4.35-3.51 0 0zm13.3-2.73c-4.04-1.62 3.45-1.31 0 0zM7.45 67.72c-.71-6.8 5.16 3.64 0 0zm4.62-1.2c.7-3.55.7 3.53 0 0zm1.46-.03c1.26-1.81-.25 3.4 0 0zm1.3.53c-1.27-6.28 3.21 3.56 0 0zm2-.11c2.04-1.03-1.04 3.36 0 0zm2.73.1c-.1-5.06 2.54 3.35 0 0zm.91-.52c-1.6-.92.59 1.75 0 0zm-2.18-.11c.64-1.08.11 1.47 0 0zm56.74-8.7c-2.97-8.16 11.92 4.56 0 0zm-4.75-1.49c-.88-1.52-.1 1.97 0 0zm6.35 0c-.53-1.8-.53 1.81 0 0zm-33.76.83c-2.94-6.57 5.72 2.55 0 0zm1.61-1.22c-.96-3.87-1.15 3.73 0 0zm1.43.84c3.4-5.92 3.94 5.78 0 0zm5.87.25c-1.16-4.92 3.63 3.27 0 0zm2.8.3c-2.76-5.6 5.28 2.13 0 0zM56.9 57c4.46-5.99 6.28 5.32 0 0zm4.66-.82c-.88-1.52-.11 1.97 0 0zm5.03.67c-4.7-6.78 5.42 1.96 0 0zm28.23-.54c-3.7 4.9-3.11-3.61 0 0zM3.1 49.58c9.74-2.97 23.2-5.12 31.75.3-10.58.83-21.17-.5-31.75-.3zm79.1 0c2.43-1.55 9.13 1.15 2.83.57zm-25.02-2.61c-14.52-17.53 15.3.2 0 0zm7.46-1.38c8.79-7.7 15.8 2.85 0 0zm1.43-1.83c-.53-1.8-.53 1.8 0 0zm2.64 0c-.53-1.8-.53 1.8 0 0zm17.87.4c-5.35-7.39 5.69 2.76 0 0zm6.2.29c-3.74-4.16 4.42.88 0 0zm-40.82-8.67c6.73-8.86 27.5 3.87 7.68.35-2.55-.3-5.12-.32-7.68-.35zm22.84-4.96c-.23-3.23 1.54 2.12 0 0zm4.43.44c-.97-2.3 2.77 1.69 0 0zm2.07-.56c-2.08.1.81-1.07 0 0zm5.14-.16c1.08-3.65 1.6 3.74 0 0zm-71.53-.06c-23.6-3.63 19.7-20.28 1.46.1zM8.6 25.52c6.35 1.8-.22-4.59 0 0zm6.16-2.02c-4.29-2.44 1.96 4.35 0 0zm69.95 4.44c-.2-15.56 17.62 9 .89.16zm7.81-2.29c.41-8.87-7.23 4.28 0 0zm-2.73-.99c-1.93-3.25 4.6 1.93 0 0zm-47.66-6.42c-7.56-10.82 12.03-2.15 0 0zm44.21-.05c-12.65-5.7 8.26-7.79 0 0zm4.5-4.42c2.14-6.4 3.96 4.83 0 0zM73.1 12.5c3.77-3.7 3.97 4.87 0 0zM4.82 8.33c5.6-18.26 13.55 11.8 0 0zm3.56-.07c12.8 3.6-2.7-7.36 0 0zM6.18 8c-1.56-4.5 3.5 1.94 0 0zm3.8-.94c-1.9-6.48 4.95 3.24 0 0zm61.27.3c-3.15-7 6.18 2.58 0 0zm1.37-.84c-.98-3.34-.37 3.2 0 0zm13.9 1c-2.83-9.02 7.9 2.12 0 0zM76.38 6.45c.18-2.86 1.62 2.45 0 0zm16.14 0c-.36-4.44 2.6 3.66 0 0z" fill="#a6abad"/>
  <path d="M44.27 242.95c-2.97-3.94 4.66.3 0 0zm-16.8-.8c.02-2.64 1.35 1.95 0 0zm10.91.07c.42-4.1 2.86 2.9 0 0zm-15.72-.42c.66-2.17.66 2.17 0 0zm28.58.13c-6.04-1.14 2.57-2.94 0 0zm-1.85-.36c-1.34-3.24 2.56 1.24 0 0zm-2.12-.04c.7-1.79.7 1.8 0 0zm-23.49-.57c-.62-2.2 1.39 1 0 0zm4.8.01l-.07-1.02.06 1.02zm1.4-.34c-2.16-2.42 2.12.2 0 0zm29.9-4.82c1.86-9.61 12.3.79 0 0zm2.59-3.16c1.95-5.14-3.44 2.46 0 0zm-33.53 1.4c4.6-15.75 12.06 10.6 0 0zm4.19-.58c10.28 1.01-7.34-4.33 0 0zm-2.33.2c-3.16-4.12 4.77.75 0 0zm5.02-.6c-9.1-5.98 8.82-2.26 0 0zm6.97.1c-4.66-3.6 4.17-2.08 0 0zm3.96-.02c-1.57-10.46 7.38 5.3 0 0zm2.21-.43c2.65-4.08-4.35 1.48 0 0zm2.53.6c-5.38-1.87 3.56-4.27 0 0zm2.57.36c-6.06-1.61 3.36-4.2 0 0zm1.88-.28c-3.81-10.16 8.79 3.34 0 0zm2.06-.88c1.18-3.8-4.2 3.2 0 0zm-3.85-4.63c1.05-1.03-.37 1.6 0 0zM6 224.22c1.92-9.45 2.98 7.1 0 0zm2.38-.4c.75-4-3.85 3.38 0 0zm2.11 1.97c-6.38-.93 2.6-3.47 0 0zm1.6-1.73c1.5-1.16-.78 2.3 0 0zm16.8-46.8c-.37-1.66 1.33 1.08 0 0zm7.27-5.05c1.9-4.5 1.89 7.85 0 0zm-7.89-.4c1.53-5.07 1.19 3.92 0 0zm3.79.67c.94-1.15-.02 1.78 0 0zm2.36-.02c-3.58-1.7 4.47.06 0 0zm53.33-.51c.5-1.45.5 1.45 0 0zM40 171.68c.13-1.48.63 1.1 0 0zm1.2-.11c-.29-1.8 1.17 1.15 0 0zm-9.13-.41c0-1.82.92 1.16 0 0zm-9.03-1.7c-3.87-8.5 7.02 3.09 0 0zm10.55-48.35c-4.56-5.4 5.72.12 0 0zm1.52-1.15c-.95-2.52-.95 2.52 0 0zm9.93 1.2c-.2-8.85 6.3 4.78 0 0zm-24.2-.96c-1.4-8.43 4.08 5.49 0 0zm-10.15-.11c-3.7 4.89-3.11-3.62 0 0zm68.49-9.33c-4.87-3.65 3.62-1.9 0 0zm-3.06-.94c-6.02-4.13 2.85-3.28 0 0zm4.23-2.14c-2.9-5.68-1.16 3.65 0 0zm10.58-2.56c-.56-5.74 3.5 3.38 0 0zm-83.48-.66c7.06-4.25 10.79 3.81 0 0zm83.26-3.48c-21.99-19.32 24.38-5.46 0 0zm2.5-3.49c5.8-9.45-10.4.73 0 0zm-1.57-.6c-5.32-3.4 4.81-1.05 0 0zm6.2-12.4l-.01.41zm-26.84-1.24c.5-4.7 2.3 3.35 0 0zM7.59 69.58c-3.11-4.96 4.42-1.43 0 0zM48.5 20.16c-3.07-10.24 1.96-1.2 0 0zm26.09 1.16c-6.23-3.91 6.2-2.2 0 0zm-67.1-.9c-4.78 1.75 1.06-4.09 0 0zm1.68-.06c-.3-2.78 1.36 1.9 0 0zm1.65-.08c-7.24-1.48 3.83-3 0 0zm1.97.42c-4.88-2.9 2.23-4.18 0 0zm1.83-.25c-6.84-1.13 1.24-4.36 0 0zm1.9-.83c-4.42-6.52 3.15-.3 0 0zm2.1-.4c-2.4-9.36 2.06 2.6 0 0zm4.06 1.27c-4.81-2.92 3.69-1.93 0 0zm1.44.12c.12-1.49.63 1.09 0 0zm3.57-.14c-6.38-.93 2.6-3.46 0 0zm4.93-.06c-4.77 1.76 1.07-4.08 0 0zm1.87-1.18c-2.39-9.37 2.06 2.6 0 0zm3.97 0c-2.39-9.37 2.06 2.6 0 0zm2.25 1.32c-1.4-4.07 3.53.19 0 0zm3.81-.1c-6.84-1.13 1.24-4.36 0 0zm1.89-.83c-4.41-6.52 3.16-.3 0 0zm4.09.93c-1.4-4.07 3.53.19 0 0zm3.81-.1c-6.84-1.13 1.24-4.36 0 0zm1.89-.83c-4.41-6.52 3.16-.3 0 0zm6.06.8c-4.78 1.75 1.06-4.09 0 0zm3.8-1.53c.7-11.62 4.1 8.68 0 0zm2.23 1.3c4.2-3.82-5.04-.47 0 0zm2.1.01c-7.49-3.75 3.15-2.1 0 0zm-12.22-.85c-.85-6.78 1.87 2.52 0 0zm-28.9-.61c1.52-1.16-.76 2.3 0 0zm42.87 0c1.51-1.16-.77 2.3 0 0zm3.18 37.85c-.21-7.68 2.96 4.8 0 0zm1.5-.15c1.4-2.96-2.36 1.35 0 0zm-33.68.64c-4.03-4.36 5.21-.16 0 0zm1.5-.63c5-4.86-5.14.68 0 0zm1.48.5c-3.96-.13 2.22-2.63 0 0zm1.5-.2c-5.92-2.54 3.95-.79 0 0zm1.89.09c-4.55-3.96 3.92 0 0 0zm2.43.1c1.1-4.58 3.55 6.53 0 0zm3.1-.2c-6.27-2.33 3.74-1.06 0 0zm2.37 0c-6.26-2.33 3.75-1.06 0 0zm3.09.12c-3.78-3.24 9 1.97 0 0zm1.23-.42c1.4-2.96-2.35 1.35 0 0zm5 .19c-3.77-4.24 3.9.8 0 0zm2.48.07c-1.03-4.8 3.76 3.17 0 0zm1.26-.26c1.4-2.96-2.36 1.35 0 0zm7.6.44c-1.58-3.57 4.36 2.18 0 0zm3.6-.12c-4.13-.32 2.5-2.6 0 0zm1.16-.02c-2.38-4.22 4.33 1.67 0 0zm-19.9-.61l1.06-.37zm8.68-.08c1.73-5.18 3.28 3.09 0 0zm23.21.27c-3.7 4.9-3.11-3.61 0 0zM3.1 49.72c8.05-4.86 44.58.17 18.87.31-6.3-.05-12.58-.31-18.87-.32zm79.1-.14c2.43-1.55 9.13 1.15 2.83.57zM56.38 45.9c-5.86-12.67 10.51 3.74 0 0zM65 44.44c-1-2.15 1.24.78 0 0zm21.57-.27c-5.35-7.4 5.69 2.75 0 0zm6.2.28c-3.74-4.16 4.42.88 0 0zm-12.23-.46c-1.95-1.14 1.9-.72 0 0zm-15.52-.78l-.01.42zm7.92.15c.12-1.48.62 1.1 0 0zm1.71 0c.65-1.08.12 1.47 0 0zm-22.7-7.58c6.98-7.73 25.15 3.18 7.21.24-2.4-.25-4.8-.15-7.21-.24zM13.8 30.1C-8.46 29.1 25.31 9.86 18.93 26a39.13 39.13 0 0 1-5.13 4.1zm-5.19-4.58c5.56 1.87.6-4.95 0 0zm6.14-2.02c-4.29-2.44 1.96 4.35 0 0zm69.95 4.44c-.2-15.56 17.62 9 .89.16zm7.81-2.29c.48-8.53-6.86 3.86 0 0zm-2.73-.99c-1.93-3.25 4.6 1.93 0 0zm-46.8-7.9c-7.6-7.46 6.87-4.17 0 0zm48.8-3.97c1.42-5.74 2.63 3.74 0 0zM4.81 8.33c5.6-18.26 13.55 11.8 0 0zm3.56-.07c12.8 3.6-2.7-7.36 0 0zM6.18 8c-1.56-4.5 3.5 1.94 0 0zm3.8-.94c-1.9-6.48 4.95 3.24 0 0zm61.27.3c-3.15-7 6.18 2.58 0 0zm1.37-.84c-.98-3.34-.37 3.2 0 0zm13.9.99c-2.83-9 7.9 2.13 0 0zM76.38 6.46c.18-2.86 1.62 2.45 0 0zm16.14 0c-.36-4.44 2.6 3.66 0 0z" fill="#43a2c2"/>
  <path d="M44.63 242.66c-2.85-1.76 2.64-.88 0 0zm-17.08-.35c-.58-1.7 1.46 1.1 0 0zm-4.73-.21c-2.08.1.8-1.07 0 0zm17.04-.43l.93-.53zm9.8-.14c.49-1.44.49 1.45 0 0zm-11.35-.25c-1-1.44 1.11.18 0 0zm6.58-.29c.95-.94-.08 1.4 0 0zm6.26.1c-.96-1.76 1.77.97 0 0zm-21.08-.61c.12-1.49.63 1.09 0 0zm29.74-5.14c-6.13-10.7 12.7-1.22 0 0zm2.66-2.69c7.48-8.98-6.75 3.7 0 0zm-33.5 1.28c5.05-17.97 12.58 12.38 0 0zm3.9-.2c11.17 6.83-4.57-7.98 0 0zm-2.54-.67c-.59-5 2.94 2.86 0 0zm4.26-.69c-2.1-9.01 6.53 3.9 0 0zm8.44 1.01c-6.7-5.1 6.14-5.25 0 0zm4.07.1c-3.54-9.03 7.43 3 0 0zm1.97-.73c1.91-4.63-3.6 2.03 0 0zm2.55.74c-5.25-2.22 4.16-4.28 0 0zm2.45.2c-4.68-3.19 3.58-2.96 0 0zm1.93-.36c-4-9.39 8.58 2.86 0 0zm1.97-.68c2.44-4.75-3.91 2.08 0 0zm6.9.58c3.23-8.46 7.56 5.46 0 0zM6 224.22c1.92-9.45 2.98 7.1 0 0zm2.38-.4c.75-4-3.85 3.38 0 0zm2.11 1.97c-6.38-.93 2.6-3.47 0 0zm1.6-1.73c1.5-1.16-.78 2.3 0 0zm16.8-46.8c-.37-1.66 1.33 1.08 0 0zm7.27-5.05c1.9-4.5 1.89 7.85 0 0zm-7.89-.4c1.53-5.07 1.19 3.92 0 0zm3.79.67c.94-1.15-.02 1.78 0 0zm2.36-.02c-3.58-1.7 4.47.06 0 0zm53.33-.51c.5-1.45.5 1.45 0 0zM40 171.68c.13-1.48.63 1.1 0 0zm1.2-.11c-.29-1.8 1.17 1.15 0 0zm-9.13-.41c0-1.82.92 1.16 0 0zm-9.03-1.7c-3.87-8.5 7.02 3.09 0 0zm56.14-58.7c-4.87-3.65 3.62-1.9 0 0zm-3.06-.94c-6.02-4.13 2.85-3.28 0 0zm4.23-2.14c-2.9-5.68-1.16 3.65 0 0zm10.58-2.56c-.56-5.74 3.5 3.38 0 0zm-83.48-.66c7.06-4.25 10.79 3.81 0 0zm83.26-3.48c-21.99-19.32 24.38-5.46 0 0zm2.5-3.49c5.8-9.45-10.4.73 0 0zm-1.57-.6c-5.32-3.4 4.81-1.05 0 0zm6.2-12.4l-.01.41zm-26.84-1.24c.5-4.7 2.3 3.35 0 0zM7.59 69.58c-3.11-4.96 4.42-1.43 0 0zM48.5 20.16c-3.07-10.24 1.96-1.2 0 0zm26.09 1.16c-6.23-3.91 6.2-2.2 0 0zm-67.1-.9c-4.78 1.75 1.06-4.09 0 0zm1.68-.06c-.3-2.78 1.36 1.9 0 0zm1.65-.08c-7.24-1.48 3.83-3 0 0zm1.97.42c-4.88-2.9 2.23-4.18 0 0zm1.83-.25c-6.84-1.13 1.24-4.36 0 0zm1.9-.83c-4.42-6.52 3.15-.3 0 0zm2.1-.4c-2.4-9.36 2.06 2.6 0 0zm4.06 1.27c-4.81-2.92 3.69-1.93 0 0zm1.44.12c.12-1.49.63 1.09 0 0zm3.57-.14c-6.38-.93 2.6-3.46 0 0zm4.93-.06c-4.77 1.76 1.07-4.08 0 0zm1.87-1.18c-2.39-9.37 2.06 2.6 0 0zm3.97 0c-2.39-9.37 2.06 2.6 0 0zm2.25 1.32c-1.4-4.07 3.53.19 0 0zm3.81-.1c-6.84-1.13 1.24-4.36 0 0zm1.89-.83c-4.41-6.52 3.16-.3 0 0zm4.09.93c-1.4-4.07 3.53.19 0 0zm3.81-.1c-6.84-1.13 1.24-4.36 0 0zm1.89-.83c-4.41-6.52 3.16-.3 0 0zm6.06.8c-4.78 1.75 1.06-4.09 0 0zm3.8-1.53c.7-11.62 4.1 8.68 0 0zm2.23 1.3c4.2-3.82-5.04-.47 0 0zm2.1.01c-7.49-3.75 3.15-2.1 0 0zm-12.22-.85c-.85-6.78 1.87 2.52 0 0zm-28.9-.61c1.52-1.16-.76 2.3 0 0zm42.87 0c1.51-1.16-.77 2.3 0 0z" fill="#f65a4e"/>
  <path d="M44.63 242.66c-2.85-1.76 2.64-.88 0 0zm-17.08-.35c-.58-1.7 1.46 1.1 0 0zm-4.73-.21c-2.08.1.8-1.07 0 0zm17.04-.43l.93-.53zm9.8-.14c.49-1.44.49 1.45 0 0zm-11.35-.25c-1-1.44 1.11.18 0 0zm6.58-.29c.95-.94-.08 1.4 0 0zm6.26.1c-.96-1.76 1.77.97 0 0zm-21.08-.61c.12-1.49.63 1.09 0 0zm29.74-5.14c-6.13-10.7 12.7-1.22 0 0zm2.66-2.69c7.48-8.98-6.75 3.7 0 0zm-33.5 1.28c5.05-17.97 12.58 12.38 0 0zm3.9-.2c11.17 6.83-4.57-7.98 0 0zm-2.54-.67c-.59-5 2.94 2.86 0 0zm4.26-.69c-2.1-9.01 6.53 3.9 0 0zm8.44 1.01c-6.7-5.1 6.14-5.25 0 0zm4.07.1c-3.54-9.03 7.43 3 0 0zm1.97-.73c1.91-4.63-3.6 2.03 0 0zm2.55.74c-5.25-2.22 4.16-4.29 0 0zm2.45.2c-4.68-3.19 3.58-2.96 0 0zm1.93-.36c-4-9.39 8.58 2.86 0 0zm1.97-.68c2.44-4.75-3.91 2.08 0 0zm6.9.58c3.23-8.46 7.56 5.46 0 0zM6 218.93c1.92-9.45 2.98 7.1 0 0zm2.38-.41c.75-4-3.85 3.39 0 0zm2.11 1.98c-6.38-.93 2.6-3.47 0 0zm1.6-1.74c1.5-1.16-.78 2.3 0 0zm75.66-46.81c.5-1.45.5 1.45 0 0zm3.17-66.83c-.56-5.74 3.5 3.38 0 0zm6.9-20.64v.42zM71 83.25c.5-4.7 2.3 3.35 0 0zM7.59 69.58c-3.11-4.96 4.42-1.43 0 0zM48.5 20.16c-3.07-10.24 1.96-1.2 0 0zm26.09 1.16c-6.23-3.91 6.2-2.2 0 0zm-67.1-.9c-4.78 1.75 1.06-4.09 0 0zm1.68-.06c-.3-2.78 1.36 1.9 0 0zm1.65-.08c-7.24-1.48 3.83-3 0 0zm1.97.42c-4.88-2.9 2.23-4.18 0 0zm1.83-.25c-6.84-1.13 1.24-4.36 0 0zm1.9-.83c-4.42-6.52 3.15-.3 0 0zm2.1-.4c-2.4-9.36 2.06 2.6 0 0zm4.06 1.27c-4.81-2.92 3.69-1.93 0 0zm1.44.12c.12-1.49.63 1.09 0 0zm3.57-.14c-6.38-.93 2.6-3.46 0 0zm4.93-.06c-4.77 1.76 1.07-4.08 0 0zm1.87-1.18c-2.39-9.37 2.06 2.6 0 0zm3.97 0c-2.39-9.37 2.06 2.6 0 0zm2.25 1.32c-1.4-4.07 3.53.19 0 0zm3.81-.1c-6.84-1.13 1.24-4.36 0 0zm1.89-.83c-4.41-6.52 3.16-.3 0 0zm4.09.93c-1.4-4.07 3.53.19 0 0zm3.81-.1c-6.84-1.13 1.24-4.36 0 0zm1.89-.83c-4.41-6.52 3.16-.3 0 0zm6.06.8c-4.78 1.75 1.06-4.09 0 0zm3.8-1.53c.7-11.62 4.1 8.68 0 0zm2.23 1.3c4.2-3.82-5.04-.47 0 0zm2.1.01c-7.49-3.75 3.15-2.1 0 0zm-12.22-.85c-.85-6.78 1.87 2.52 0 0zm-28.9-.61c1.52-1.16-.76 2.3 0 0zm42.87 0c1.51-1.16-.77 2.3 0 0zM57.5 50.33c-3.9-7.68 8.2 1.28 0 0zm7.5-.6c-1-2.15 1.24.78 0 0zm15.54-.45c-1.95-1.14 1.9-.72 0 0zm-15.52-.78l-.01.42zm7.92.15c.12-1.48.62 1.1 0 0zm1.71 0c.65-1.08.12 1.47 0 0z" fill="#4d5659"/>
</svg>
